<svg width="16" height="16" viewBox="0 0 16 16" fill="none" xmlns="http://www.w3.org/2000/svg">
<path d="M5.15506 10.466C5.12765 10.3819 5.06797 10.3122 4.98914 10.2721C4.91031 10.2321 4.8188 10.2249 4.73472 10.2523C4.65065 10.2798 4.58091 10.3394 4.54084 10.4183C4.50077 10.4971 4.49365 10.5886 4.52106 10.6727C4.77081 11.4444 5.25829 12.1172 5.91372 12.595C6.56811 13.072 7.35694 13.3291 8.16672 13.3293C8.35072 13.3293 8.50006 13.1797 8.50006 12.995C8.50006 12.8103 8.35072 12.6607 8.16672 12.6607C7.49777 12.6601 6.84618 12.4478 6.30539 12.054C5.76408 11.6592 5.36145 11.1034 5.15506 10.466Z" fill="#D90000"/>
<path fill-rule="evenodd" clip-rule="evenodd" d="M8 1.33334L7.77 1.55334L7.76867 1.55468L7.76567 1.55734L7.755 1.56801L7.71433 1.60768C7.67878 1.64257 7.62811 1.69312 7.56233 1.75934C6.78293 2.55489 6.05985 3.40371 5.39833 4.29968C4.227 5.89334 3 8.02734 3 10.0267C3 12.615 5.26533 14.6667 8 14.6667C10.7347 14.6667 13 12.615 13 10.0267C13 8.02668 11.773 5.89301 10.6017 4.30001C9.94016 3.40393 9.21708 2.55499 8.43767 1.75934C8.37406 1.69494 8.30984 1.63116 8.245 1.56801L8.23433 1.55734L8.231 1.55468L8 1.33334ZM7.51633 2.77801C7.67473 2.60492 7.83598 2.43445 8 2.26668C8.74294 3.02864 9.43289 3.84053 10.065 4.69668C11.227 6.27734 12.3333 8.25901 12.3333 10.0267C12.3333 12.1943 10.42 13.998 8 13.998C5.58 13.998 3.66667 12.1943 3.66667 10.0267C3.66667 8.25901 4.773 6.27734 5.935 4.69668C6.42764 4.02947 6.9555 3.38901 7.51633 2.77801Z" fill="#D90000"/>
</svg>
