<svg width="20" height="22" viewBox="0 0 20 22" fill="none" xmlns="http://www.w3.org/2000/svg">
<path d="M3.14111 21.0506V19.7349H16.8589V21.0506H3.14111ZM3.07667 17.2562L1.46778 7.20325C1.43074 7.22079 1.38926 7.23044 1.34333 7.23219C1.29667 7.23482 1.25482 7.23614 1.21778 7.23614C0.868889 7.23614 0.578889 7.0958 0.347778 6.81513C0.116667 6.53445 0.000740741 6.19413 0 5.79417C0 5.3793 0.115926 5.0267 0.347778 4.73638C0.578889 4.44694 0.869259 4.30221 1.21889 4.30221C1.56852 4.30221 1.86593 4.44694 2.11111 4.73638C2.35556 5.0267 2.47778 5.3793 2.47778 5.79417C2.47778 5.88539 2.47482 5.97003 2.46889 6.0481C2.46296 6.12616 2.44111 6.20334 2.40333 6.27965L5.96111 7.97028L9.26222 2.64843C9.10148 2.52388 8.97407 2.35898 8.88 2.15374C8.78593 1.94937 8.73889 1.72878 8.73889 1.49196C8.73889 1.07797 8.86148 0.725807 9.10667 0.435484C9.35111 0.145161 9.64852 0 9.99889 0C10.3485 0 10.6463 0.144723 10.8922 0.434168C11.1381 0.723614 11.2611 1.07446 11.2611 1.4867C11.2611 1.7358 11.2141 1.96034 11.12 2.16032C11.0259 2.36205 10.8985 2.52475 10.7378 2.64843L14.0378 7.97028L17.5967 6.27965C17.5767 6.20948 17.5593 6.13274 17.5444 6.04941C17.5296 5.96521 17.5222 5.88013 17.5222 5.79417C17.5222 5.3793 17.6378 5.0267 17.8689 4.73638C18.1 4.44694 18.3904 4.30221 18.74 4.30221C19.0896 4.30221 19.387 4.44694 19.6322 4.73638C19.8774 5.0267 20 5.3793 20 5.79417C20 6.19238 19.877 6.53226 19.6311 6.81381C19.3852 7.09536 19.0867 7.23614 18.7356 7.23614C18.7074 7.23614 18.6756 7.23088 18.64 7.22035C18.6044 7.20983 18.5659 7.20412 18.5244 7.20325L16.9233 17.2549L3.07667 17.2562ZM4.02556 15.9406H15.9744L17.3378 7.86634L13.6522 9.60696L10 3.68911L6.34889 9.60696L2.66222 7.86634L4.02556 15.9406Z" fill="white"/>
</svg>
