<svg width="18" height="18" viewBox="0 0 18 18" fill="none" xmlns="http://www.w3.org/2000/svg">
<path d="M7.14975 8.3625C7.02291 8.48935 6.92232 8.63996 6.85373 8.80571C6.78514 8.97146 6.74989 9.14911 6.75 9.3285V11.25H8.6835C9.04575 11.25 9.39375 11.106 9.65025 10.8495L15.3502 5.1465C15.4774 5.0197 15.5782 4.86908 15.647 4.70325C15.7158 4.53743 15.7512 4.35966 15.7512 4.18012C15.7512 4.00059 15.7158 3.82282 15.647 3.65699C15.5782 3.49117 15.4774 3.34054 15.3502 3.21375L14.787 2.6505C14.6602 2.52328 14.5095 2.42234 14.3436 2.35347C14.1777 2.2846 13.9999 2.24915 13.8203 2.24915C13.6406 2.24915 13.4628 2.2846 13.2969 2.35347C13.131 2.42234 12.9803 2.52328 12.8535 2.6505L7.14975 8.3625Z" stroke="#008080" stroke-width="1.5" stroke-linecap="round" stroke-linejoin="round"/>
<path d="M15.75 9.00027C15.75 12.1825 15.75 13.7733 14.7615 14.7618C13.773 15.7503 12.1815 15.7503 9 15.7503C5.8185 15.7503 4.227 15.7503 3.2385 14.7618C2.25 13.7733 2.25 12.1818 2.25 9.00027C2.25 5.81877 2.25 4.22727 3.2385 3.23877C4.227 2.25027 5.8185 2.25027 9 2.25027" stroke="#008080" stroke-width="1.5" stroke-linecap="round" stroke-linejoin="round"/>
</svg>
