<svg width="30" height="30" viewBox="0 0 30 30" fill="none" xmlns="http://www.w3.org/2000/svg">
<path d="M8.4375 16.6406H3.75C3.56352 16.6406 3.38468 16.5665 3.25282 16.4347C3.12095 16.3028 3.04688 16.124 3.04688 15.9375C3.04688 15.751 3.12095 15.5722 3.25282 15.4403C3.38468 15.3085 3.56352 15.2344 3.75 15.2344H8.06133L9.72656 12.7348C9.7907 12.6381 9.87777 12.5588 9.98001 12.5039C10.0822 12.449 10.1965 12.4203 10.3125 12.4203C10.4285 12.4203 10.5428 12.449 10.645 12.5039C10.7472 12.5588 10.8343 12.6381 10.8984 12.7348L14.0625 17.482L15.3516 15.5473C15.4159 15.4509 15.503 15.3719 15.6053 15.3173C15.7075 15.2627 15.8216 15.2342 15.9375 15.2344H18.75C18.9365 15.2344 19.1153 15.3085 19.2472 15.4403C19.379 15.5722 19.4531 15.751 19.4531 15.9375C19.4531 16.124 19.379 16.3028 19.2472 16.4347C19.1153 16.5665 18.9365 16.6406 18.75 16.6406H16.3137L14.6484 19.1402C14.5843 19.2369 14.4972 19.3162 14.395 19.3711C14.2928 19.426 14.1785 19.4547 14.0625 19.4547C13.9465 19.4547 13.8322 19.426 13.73 19.3711C13.6278 19.3162 13.5407 19.2369 13.4766 19.1402L10.3125 14.393L9.02344 16.3277C8.95912 16.4241 8.87197 16.5031 8.76975 16.5577C8.66752 16.6123 8.55339 16.6408 8.4375 16.6406ZM20.8594 4.92188C18.3984 4.92188 16.2586 6.03164 15 7.89141C13.7414 6.03164 11.6016 4.92188 9.14062 4.92188C7.27649 4.92405 5.48932 5.66553 4.17118 6.98368C2.85303 8.30182 2.11155 10.089 2.10938 11.9531V12.2098C2.11528 12.3962 2.19502 12.5727 2.33106 12.7004C2.39842 12.7637 2.47757 12.813 2.564 12.8456C2.65042 12.8783 2.74243 12.8935 2.83477 12.8906C2.9271 12.8877 3.01796 12.8666 3.10215 12.8286C3.18633 12.7905 3.26221 12.7363 3.32543 12.6689C3.38865 12.6016 3.43799 12.5224 3.47062 12.436C3.50326 12.3496 3.51855 12.2576 3.51562 12.1652V11.9531C3.51718 10.4618 4.11031 9.03192 5.16486 7.97736C6.21942 6.92281 7.64926 6.32968 9.14062 6.32812C11.5172 6.32812 13.5129 7.59727 14.3496 9.64102C14.4026 9.76998 14.4927 9.88028 14.6085 9.9579C14.7243 10.0355 14.8606 10.077 15 10.077C15.1394 10.077 15.2757 10.0355 15.3915 9.9579C15.5073 9.88028 15.5974 9.76998 15.6504 9.64102C16.4871 7.59727 18.4828 6.32812 20.8594 6.32812C22.3507 6.32968 23.7806 6.92281 24.8351 7.97736C25.8897 9.03192 26.4828 10.4618 26.4844 11.9531C26.4844 18.484 16.9207 24.334 15 25.4426C13.8469 24.7793 9.95039 22.4168 7.0125 19.2129C6.95141 19.1404 6.8763 19.0811 6.79168 19.0384C6.70707 18.9957 6.61469 18.9706 6.52011 18.9645C6.42554 18.9584 6.3307 18.9715 6.24131 19.003C6.15193 19.0345 6.06983 19.0837 5.99995 19.1477C5.93007 19.2118 5.87386 19.2893 5.83469 19.3756C5.79553 19.4619 5.77421 19.5552 5.77202 19.6499C5.76984 19.7447 5.78683 19.8389 5.82198 19.9269C5.85713 20.0149 5.90971 20.0949 5.97656 20.1621C9.60234 24.1195 14.4621 26.7586 14.6672 26.8687C14.7695 26.9237 14.8838 26.9525 15 26.9525C15.1162 26.9525 15.2305 26.9237 15.3328 26.8687C17.5406 25.6276 19.623 24.1755 21.5508 22.5328C25.7578 18.9363 27.8906 15.375 27.8906 11.9531C27.8885 10.089 27.147 8.30182 25.8288 6.98368C24.5107 5.66553 22.7235 4.92405 20.8594 4.92188Z" fill="#008080"/>
</svg>
