<svg width="37" height="37" viewBox="0 0 37 37" fill="none" xmlns="http://www.w3.org/2000/svg">
<path d="M18.5 2.3125C16.3534 2.3125 14.2947 3.16523 12.7769 4.6831C11.259 6.20098 10.4062 8.25965 10.4062 10.4062C10.4062 12.5528 11.259 14.6115 12.7769 16.1294C14.2947 17.6473 16.3534 18.5 18.5 18.5C20.6466 18.5 22.7053 17.6473 24.2231 16.1294C25.741 14.6115 26.5938 12.5528 26.5938 10.4062C26.5938 8.25965 25.741 6.20098 24.2231 4.6831C22.7053 3.16523 20.6466 2.3125 18.5 2.3125ZM11.5625 10.4062C11.5625 8.56631 12.2934 6.80173 13.5944 5.5007C14.8955 4.19966 16.6601 3.46875 18.5 3.46875C20.3399 3.46875 22.1045 4.19966 23.4056 5.5007C24.7066 6.80173 25.4375 8.56631 25.4375 10.4062C25.4375 12.2462 24.7066 14.0108 23.4056 15.3118C22.1045 16.6128 20.3399 17.3438 18.5 17.3438C16.6601 17.3438 14.8955 16.6128 13.5944 15.3118C12.2934 14.0108 11.5625 12.2462 11.5625 10.4062ZM8.67188 20.8125C7.59858 20.8125 6.56924 21.2389 5.8103 21.9978C5.05137 22.7567 4.625 23.7861 4.625 24.8594V25.6306C4.625 28.1165 7.82319 34.6875 18.5 34.6875C29.1768 34.6875 32.375 28.1154 32.375 25.6306V24.8594C32.375 23.7861 31.9486 22.7567 31.1897 21.9978C30.4308 21.2389 29.4014 20.8125 28.3281 20.8125H8.67188ZM5.78125 24.8594C5.78125 24.0927 6.0858 23.3575 6.62789 22.8154C7.16999 22.2733 7.90523 21.9688 8.67188 21.9688H28.3281C29.0948 21.9688 29.83 22.2733 30.3721 22.8154C30.9142 23.3575 31.2188 24.0927 31.2188 24.8594V25.6306C31.2188 27.3846 28.6345 33.5312 18.5 33.5312C8.36547 33.5312 5.78125 27.3846 5.78125 25.6306V24.8594Z" fill="white"/>
</svg>
