<svg width="16" height="16" viewBox="0 0 16 16" fill="none" xmlns="http://www.w3.org/2000/svg">
<path d="M6.31931 2.33335C6.13181 2.14608 5.87765 2.04089 5.61264 2.04089C5.34764 2.04089 5.09348 2.14608 4.90598 2.33335L2.33331 4.90001C2.14694 5.08819 2.04165 5.34184 2.03998 5.60668C2.04021 5.87181 2.14572 6.12599 2.33331 6.31335L9.67931 13.6667C9.86795 13.8544 10.1232 13.9597 10.3893 13.9597C10.6554 13.9597 10.9107 13.8544 11.0993 13.6667L13.666 11.0933C13.7595 11.001 13.8338 10.8909 13.8844 10.7696C13.9351 10.6483 13.9612 10.5181 13.9612 10.3867C13.9612 10.2552 13.9351 10.1251 13.8844 10.0037C13.8338 9.88244 13.7595 9.77241 13.666 9.68001L6.31931 2.33335ZM5.57265 4.72001C5.5414 4.751 5.5166 4.78787 5.49968 4.82849C5.48276 4.86911 5.47405 4.91268 5.47405 4.95668C5.47405 5.00068 5.48276 5.04425 5.49968 5.08487C5.5166 5.12549 5.5414 5.16236 5.57265 5.19335C5.63714 5.25275 5.72162 5.28573 5.80931 5.28573C5.897 5.28573 5.98148 5.25275 6.04598 5.19335C6.41265 4.82001 6.77264 4.46001 7.14598 4.10001L7.97931 4.93335L7.37931 5.53335C7.34768 5.56342 7.3225 5.59962 7.30529 5.63973C7.28809 5.67984 7.27921 5.72303 7.27921 5.76668C7.27921 5.81033 7.28809 5.85352 7.30529 5.89363C7.3225 5.93374 7.34768 5.96993 7.37931 6.00001C7.4103 6.03126 7.44717 6.05605 7.48779 6.07298C7.52841 6.0899 7.57197 6.09861 7.61598 6.09861C7.65998 6.09861 7.70355 6.0899 7.74417 6.07298C7.78479 6.05605 7.82166 6.03126 7.85265 6.00001C8.04598 5.80001 8.25265 5.60001 8.45265 5.40668L9.28598 6.24001L8.19265 7.34001C8.13179 7.40211 8.0979 7.48571 8.09834 7.57266C8.09878 7.6596 8.13351 7.74286 8.19499 7.80433C8.25647 7.86581 8.33973 7.90055 8.42667 7.90098C8.51361 7.90142 8.59722 7.86753 8.65931 7.80668C9.03265 7.44001 9.39265 7.08001 9.75931 6.71335L10.5926 7.54668L9.99265 8.14668C9.93187 8.21173 9.89845 8.29766 9.89931 8.38668C9.89879 8.47366 9.93228 8.55739 9.99265 8.62001C10.0563 8.68105 10.1411 8.71513 10.2293 8.71513C10.3175 8.71513 10.4023 8.68105 10.466 8.62001L11.066 8.02001L11.906 8.86001L10.806 9.95335C10.7749 9.98443 10.7502 10.0213 10.7334 10.0619C10.7166 10.1025 10.7079 10.1461 10.7079 10.19C10.7079 10.234 10.7166 10.2775 10.7334 10.3181C10.7502 10.3587 10.7749 10.3956 10.806 10.4267C10.8371 10.4578 10.874 10.4824 10.9146 10.4992C10.9552 10.5161 10.9987 10.5247 11.0426 10.5247C11.0866 10.5247 11.1301 10.5161 11.1707 10.4992C11.2113 10.4824 11.2482 10.4578 11.2793 10.4267C11.646 10.0533 12.006 9.69335 12.3793 9.33335L13.1993 10.1533C13.2604 10.2157 13.2946 10.2994 13.2946 10.3867C13.2946 10.4739 13.2604 10.5577 13.1993 10.62L10.626 13.1933C10.595 13.2246 10.5581 13.2494 10.5175 13.2663C10.4769 13.2832 10.4333 13.2919 10.3893 13.2919C10.3453 13.2919 10.3017 13.2832 10.2611 13.2663C10.2205 13.2494 10.1836 13.2246 10.1526 13.1933L2.80598 5.84668C2.77408 5.81542 2.74879 5.77806 2.73161 5.73683C2.71444 5.6956 2.70572 5.65134 2.70598 5.60668C2.70723 5.51876 2.74317 5.43489 2.80598 5.37335L5.37931 2.80001C5.44241 2.74047 5.52589 2.70731 5.61264 2.70731C5.6994 2.70731 5.78288 2.74047 5.84598 2.80001L6.67265 3.62668L5.57265 4.72001Z" fill="#00C469"/>
<path d="M12.626 8.64001L12.5993 8.61334C12.606 8.61334 12.606 8.61334 12.6126 8.62001C12.6193 8.62668 12.626 8.63334 12.626 8.64001Z" fill="#00C469"/>
</svg>
