<svg width="30" height="30" viewBox="0 0 30 30" fill="none" xmlns="http://www.w3.org/2000/svg">
<path d="M24.4875 19.375L22.2125 17.75C22.5875 16.4 22.6125 14.9375 22.2125 13.475L24.4875 11.875L22.675 8.75L20.1375 9.9C19.15 8.9 17.9 8.125 16.4375 7.7625L16.1875 5H12.5625L12.3125 7.7625C10.85 8.125 9.59998 8.9 8.61248 9.9L6.07498 8.75L4.26248 11.875L6.53748 13.475C6.13748 14.9375 6.16248 16.4 6.53748 17.75L4.26248 19.375L6.07498 22.5L8.61248 21.3375C9.59998 22.325 10.85 23.075 12.3125 23.4625L12.5625 26.25H16.1875L16.4375 23.4625C17.9 23.075 19.15 22.325 20.1375 21.3375L22.675 22.5L24.4875 19.375ZM16.875 3.75C17.2125 3.75 17.5 4 17.5 4.325L17.725 6.875C18.675 7.225 19.525 7.7375 20.2875 8.35L22.6 7.2625C22.8875 7.1125 23.25 7.2125 23.425 7.5L25.925 11.875C26.1 12.1375 26 12.5 25.725 12.6875L23.6375 14.15C23.8 15.15 23.7875 16.1375 23.6375 17.1L25.725 18.5625C26 18.75 26.1 19.1125 25.925 19.375L23.425 23.75C23.25 24.0125 22.8875 24.1125 22.6 23.9625L20.2875 22.8875C19.525 23.5 18.675 24 17.725 24.375L17.5 26.875C17.5 27.2375 17.2125 27.5 16.875 27.5H11.875C11.7092 27.5 11.5502 27.4342 11.433 27.3169C11.3158 27.1997 11.25 27.0408 11.25 26.875L11.025 24.375C10.075 24 9.22498 23.5 8.46248 22.8875L6.14998 23.9625C5.86248 24.1125 5.49998 24.0125 5.32498 23.75L2.82498 19.375C2.64998 19.1125 2.74998 18.75 3.02498 18.5625L5.11248 17.1C4.96248 16.1375 4.94998 15.15 5.11248 14.15L3.02498 12.6875C2.74998 12.5 2.64998 12.1375 2.82498 11.875L5.32498 7.5C5.49998 7.2125 5.86248 7.1125 6.14998 7.2625L8.46248 8.35C9.22498 7.7375 10.075 7.225 11.025 6.875L11.25 4.325C11.25 4 11.5375 3.75 11.875 3.75H16.875ZM14.375 11.25C15.5353 11.25 16.6481 11.7109 17.4686 12.5314C18.289 13.3519 18.75 14.4647 18.75 15.625C18.75 16.7853 18.289 17.8981 17.4686 18.7186C16.6481 19.5391 15.5353 20 14.375 20C13.2147 20 12.1019 19.5391 11.2814 18.7186C10.4609 17.8981 9.99998 16.7853 9.99998 15.625C9.99998 14.4647 10.4609 13.3519 11.2814 12.5314C12.1019 11.7109 13.2147 11.25 14.375 11.25ZM14.375 12.5C13.5462 12.5 12.7513 12.8292 12.1653 13.4153C11.5792 14.0013 11.25 14.7962 11.25 15.625C11.25 16.4538 11.5792 17.2487 12.1653 17.8347C12.7513 18.4208 13.5462 18.75 14.375 18.75C15.2038 18.75 15.9986 18.4208 16.5847 17.8347C17.1707 17.2487 17.5 16.4538 17.5 15.625C17.5 14.7962 17.1707 14.0013 16.5847 13.4153C15.9986 12.8292 15.2038 12.5 14.375 12.5Z" fill="#008080"/>
</svg>
