<svg width="16" height="16" viewBox="0 0 16 16" fill="none" xmlns="http://www.w3.org/2000/svg">
<path d="M4.47468 12.6667H11.526C11.6456 12.6667 11.748 12.6176 11.8333 12.5193C11.9187 12.4211 11.9529 12.3122 11.936 12.1927L11.1013 6.34601C11.084 6.24379 11.0369 6.16045 10.96 6.09601C10.8831 6.03201 10.7933 6.00001 10.6907 6.00001H5.30868C5.20646 6.00001 5.11668 6.03201 5.03935 6.09601C4.96246 6.16001 4.91557 6.24334 4.89868 6.34601L4.06401 12.1927C4.04712 12.3122 4.08135 12.4211 4.16668 12.5193C4.25201 12.6176 4.35512 12.6667 4.47468 12.6667ZM8.00001 5.33334C8.1889 5.33334 8.34735 5.26934 8.47535 5.14134C8.60335 5.01334 8.66712 4.85512 8.66668 4.66668C8.66623 4.47823 8.60223 4.32001 8.47468 4.19201C8.34712 4.06401 8.1889 4.00001 8.00001 4.00001C7.81112 4.00001 7.6529 4.06401 7.52535 4.19201C7.39779 4.32001 7.33379 4.47823 7.33335 4.66668C7.3329 4.85512 7.3969 5.01357 7.52535 5.14201C7.65379 5.27045 7.81201 5.33423 8.00001 5.33334ZM9.14001 5.33334H10.704C10.9773 5.33334 11.2129 5.4209 11.4107 5.59601C11.608 5.77112 11.7258 5.99423 11.764 6.26534L12.5987 12.112C12.6458 12.4347 12.5622 12.7189 12.348 12.9647C12.1342 13.2105 11.8602 13.3333 11.526 13.3333H4.47401C4.13979 13.3333 3.86557 13.2105 3.65135 12.9647C3.43712 12.7189 3.35357 12.4345 3.40068 12.1113L4.23535 6.26534C4.27401 5.99423 4.39179 5.77112 4.58868 5.59601C4.78735 5.4209 5.02335 5.33334 5.29668 5.33334H6.86135C6.80223 5.23912 6.75512 5.13512 6.72001 5.02134C6.68446 4.90712 6.66668 4.7889 6.66668 4.66668C6.66668 4.29068 6.7949 3.97445 7.05135 3.71801C7.30779 3.46157 7.62401 3.33334 8.00001 3.33334C8.37601 3.33334 8.69223 3.46157 8.94868 3.71801C9.20512 3.97445 9.33335 4.29068 9.33335 4.66668C9.33335 4.7889 9.31579 4.90712 9.28068 5.02134C9.24557 5.13512 9.19868 5.23912 9.14001 5.33334Z" fill="#0E42EB"/>
</svg>
