<svg width="44" height="44" viewBox="0 0 44 44" fill="none" xmlns="http://www.w3.org/2000/svg">
<path d="M21.9303 36.6666C18.2074 36.6666 14.9618 35.4505 12.1935 33.0183C9.42636 30.5873 7.82525 27.5256 7.39014 23.8333H9.24364C9.7423 26.9866 11.179 29.6083 13.5538 31.6983C15.9286 33.7883 18.7207 34.8333 21.9303 34.8333C25.5053 34.8333 28.5376 33.5885 31.0273 31.0988C33.517 28.6091 34.7624 25.5762 34.7636 22C34.7649 18.4238 33.5194 15.3908 31.0273 12.9011C28.5352 10.4115 25.5029 9.16665 21.9303 9.16665C20.0322 9.16665 18.249 9.56754 16.5806 10.3693C14.9123 11.1699 13.4395 12.2729 12.1623 13.6785H16.7108V15.5118H9.09697V7.89981H10.9303V12.2778C12.3481 10.7219 14.0091 9.50948 15.9133 8.64048C17.8175 7.77148 19.8232 7.33576 21.9303 7.33331C23.9629 7.33331 25.8683 7.71587 27.6466 8.48098C29.425 9.24609 30.9784 10.2935 32.307 11.6233C33.6355 12.9531 34.683 14.5065 35.4493 16.2836C36.2156 18.0608 36.5982 19.9662 36.597 22C36.5957 24.0338 36.2132 25.9392 35.4493 27.7163C34.6854 29.4934 33.638 31.0469 32.307 32.3766C30.976 33.7064 29.4225 34.7539 27.6466 35.519C25.8707 36.2841 23.9653 36.6666 21.9303 36.6666ZM27.8043 29.0656L21.1181 22.3813V12.8333H22.9515V21.6186L29.1005 27.7676L27.8043 29.0656Z" fill="#808080"/>
</svg>
