<svg width="34" height="34" viewBox="0 0 34 34" fill="none" xmlns="http://www.w3.org/2000/svg">
<path d="M31.1667 14.875L18.251 3.99781C17.901 3.70311 17.4582 3.5415 17.0007 3.5415C16.5433 3.5415 16.1005 3.70311 15.7505 3.99781L2.83337 14.875" stroke="#008080" stroke-width="1.5" stroke-linecap="round" stroke-linejoin="round"/>
<path d="M29.0417 13.4583V22.6666C29.0417 25.9901 29.0417 27.6505 28.1634 28.7951C27.9372 29.0899 27.6733 29.3538 27.3785 29.58C26.2339 30.4583 24.5735 30.4583 21.25 30.4583V24.0833C21.25 22.0801 21.25 21.0786 20.6267 20.4566C20.0062 19.8333 19.0046 19.8333 17 19.8333C14.9955 19.8333 13.9953 19.8333 13.3734 20.4566C12.75 21.0771 12.75 22.0787 12.75 24.0833V30.4583C9.42654 30.4583 7.76621 30.4583 6.62154 29.58C6.32675 29.3538 6.06289 29.0899 5.83671 28.7951C4.95837 27.6505 4.95837 25.9901 4.95837 22.6666V13.4583" stroke="#008080" stroke-width="1.5" stroke-linecap="round" stroke-linejoin="round"/>
</svg>
