<svg width="39" height="39" viewBox="0 0 39 39" fill="none" xmlns="http://www.w3.org/2000/svg">
<path fill-rule="evenodd" clip-rule="evenodd" d="M19.5 19.5C23.0912 19.5 26 16.5912 26 13C26 9.40875 23.0912 6.5 19.5 6.5C15.9088 6.5 13 9.40875 13 13C13 16.5912 15.9088 19.5 19.5 19.5ZM27.625 13C27.625 17.4891 23.9891 21.125 19.5 21.125C15.0109 21.125 11.375 17.4891 11.375 13C11.375 8.51094 15.0109 4.875 19.5 4.875C23.9891 4.875 27.625 8.51094 27.625 13ZM7.49369 27.7973C6.67875 28.4554 6.5 28.9486 6.5 29.25V32.5H32.5V29.25C32.5 28.9494 32.3213 28.4546 31.5055 27.7973C30.7093 27.1546 29.5214 26.5419 28.0816 26.0122C25.2038 24.9535 21.7368 24.375 19.5 24.375C17.2632 24.375 13.7963 24.9535 10.9184 26.0122C9.47863 26.5419 8.29075 27.1546 7.49369 27.7973ZM19.5 22.75C14.6193 22.75 4.875 25.2159 4.875 29.25V34.125H34.125V29.25C34.125 25.2159 24.3815 22.75 19.5 22.75Z" fill="#808080"/>
</svg>
