<svg width="25" height="25" viewBox="0 0 25 25" fill="none" xmlns="http://www.w3.org/2000/svg">
<path d="M12.5 6.50001C13.3571 2.55251 16.5945 0.536882 23.6429 0.500007C23.7555 0.499511 23.8672 0.525039 23.9714 0.575118C24.0756 0.625197 24.1702 0.698837 24.2499 0.791795C24.3296 0.884752 24.3927 0.995188 24.4356 1.11674C24.4785 1.23829 24.5004 1.36855 24.5 1.50001V19.5C24.5 19.7652 24.4097 20.0196 24.2489 20.2071C24.0882 20.3946 23.8702 20.5 23.6429 20.5C16.7857 20.5 14.1366 22.1131 12.5 24.5M12.5 6.50001C11.6429 2.55251 8.40554 0.536882 1.35715 0.500007C1.24447 0.499511 1.13282 0.525039 1.02863 0.575118C0.924447 0.625197 0.829788 0.698837 0.75011 0.791795C0.670432 0.884752 0.607312 0.995188 0.564387 1.11674C0.521462 1.23829 0.499581 1.36855 0.500006 1.50001V19.3794C0.500006 19.9969 0.827863 20.5 1.35715 20.5C8.21429 20.5 10.873 22.125 12.5 24.5M12.5 6.50001V24.5" stroke="#008080" stroke-linecap="round" stroke-linejoin="round"/>
</svg>
