<svg width="22" height="22" viewBox="0 0 22 22" fill="none" xmlns="http://www.w3.org/2000/svg">
<path d="M10.3491 18.9383C10.5325 19.1217 10.7616 19.2042 11 19.2042C11.2383 19.2042 11.4675 19.1125 11.6508 18.9383L18.5258 12.0633C20.68 9.90918 20.68 6.51751 18.5258 4.35418C16.4175 2.26418 13.1633 2.20001 11 4.17085C8.83665 2.20001 5.58248 2.25501 3.47415 4.35418C1.31998 6.51751 1.31998 9.90918 3.47415 12.0633L10.3491 18.9383ZM4.77581 5.64668C5.49998 4.93168 6.41665 4.57418 7.34248 4.57418C8.26831 4.57418 9.18498 4.93168 9.89998 5.64668L10.3583 6.10501C10.7158 6.46251 11.2933 6.46251 11.6508 6.10501L12.1091 5.64668C13.5391 4.21668 15.7941 4.21668 17.2333 5.64668C18.6633 7.08585 18.6633 9.33168 17.2333 10.7617L11.0091 16.9858L4.78498 10.7617C4.44518 10.4281 4.17527 10.0301 3.99102 9.59093C3.80677 9.15182 3.71188 8.68039 3.71188 8.20418C3.71188 7.72797 3.80677 7.25654 3.99102 6.81743C4.17527 6.37831 4.44518 5.98031 4.78498 5.64668H4.77581Z" fill="#008080"/>
</svg>
