<svg width="21" height="21" viewBox="0 0 21 21" fill="none" xmlns="http://www.w3.org/2000/svg">
<path fill-rule="evenodd" clip-rule="evenodd" d="M17.3889 10.7625L10.36 17.7608C9.42323 18.6754 8.1633 19.1832 6.8541 19.174C5.5449 19.1647 4.29228 18.639 3.36854 17.7113C2.44479 16.7835 1.9246 15.5286 1.92104 14.2194C1.91748 12.9101 2.43084 11.6524 3.34952 10.7196L10.3784 3.72138C11.3152 2.80677 12.5751 2.2989 13.8843 2.30817C15.1935 2.31744 16.4461 2.8431 17.3699 3.77088C18.2936 4.69866 18.8138 5.95356 18.8174 7.26278C18.8209 8.572 18.3076 9.82972 17.3889 10.7625ZM16.1639 4.97176C15.5616 4.36765 14.7441 4.02724 13.8911 4.02527C13.038 4.0233 12.219 4.35993 11.6139 4.96126L4.58415 11.9595C3.97927 12.5617 3.63839 13.3795 3.63651 14.2331C3.63462 15.0866 3.97188 15.9059 4.57408 16.5108C5.17629 17.1157 5.99412 17.4566 6.84766 17.4585C7.70119 17.4603 8.52052 17.1231 9.1254 16.5209L16.1543 9.52263C16.7586 8.92028 17.0992 8.10266 17.1012 7.24937C17.1032 6.39608 16.7664 5.5769 16.1648 4.97176H16.1639Z" fill="#008080"/>
<path fill-rule="evenodd" clip-rule="evenodd" d="M7.10323 7.45852C7.26732 7.29448 7.48984 7.20233 7.72186 7.20233C7.95388 7.20233 8.1764 7.29448 8.34048 7.45852L13.6342 12.7523C13.7936 12.9173 13.8818 13.1383 13.8798 13.3677C13.8778 13.5972 13.7858 13.8166 13.6236 13.9789C13.4613 14.1411 13.2419 14.2331 13.0125 14.2351C12.783 14.2371 12.562 14.1489 12.397 13.9895L7.10323 8.69577C6.9392 8.53168 6.84705 8.30916 6.84705 8.07714C6.84705 7.84513 6.9392 7.62261 7.10323 7.45852Z" fill="#008080"/>
</svg>
