<svg width="20" height="20" viewBox="0 0 20 20" fill="none" xmlns="http://www.w3.org/2000/svg">
<path fill-rule="evenodd" clip-rule="evenodd" d="M2.85831 6.7875C3.16373 3.06917 6.26998 0.208332 9.99998 0.208332C13.73 0.208332 16.8362 3.06958 17.1416 6.7875L17.3662 9.51833C17.4416 10.4352 17.7327 11.3213 18.2158 12.1042L18.8225 13.0867C19.2262 13.7408 19.3858 14.52 19.1179 15.2271C18.8375 15.9667 18.1666 16.4229 17.3408 16.5325C16.4937 16.645 15.3141 16.7492 13.6708 16.8117C13.4935 17.6539 13.032 18.4097 12.3636 18.952C11.6953 19.4943 10.8607 19.7903 9.99998 19.7903C9.13925 19.7903 8.30469 19.4943 7.63632 18.952C6.96795 18.4097 6.50642 17.6539 6.32915 16.8117C4.68581 16.7492 3.50623 16.645 2.65915 16.5325C1.83331 16.4229 1.16248 15.9667 0.882065 15.2271C0.614148 14.5204 0.773731 13.7412 1.1779 13.0867L1.78415 12.1042C2.26743 11.3213 2.55869 10.4352 2.63415 9.51833L2.85831 6.7875ZM9.99998 1.875C7.13748 1.875 4.75415 4.07083 4.51915 6.92375L4.29498 9.65458C4.19813 10.8336 3.82377 11.9729 3.20248 12.9796L2.59581 13.9617C2.38415 14.3046 2.40415 14.5392 2.4404 14.6358C2.46456 14.6992 2.54248 14.8354 2.87873 14.88C4.15706 15.05 6.33498 15.2079 9.99998 15.2079C13.665 15.2079 15.8429 15.05 17.1212 14.88C17.4575 14.8354 17.5354 14.6992 17.5596 14.6358C17.5958 14.5392 17.6158 14.3046 17.4041 13.9617L16.7975 12.9787C16.1763 11.9723 15.802 10.8333 15.705 9.65458L15.4808 6.92333C15.3675 5.54759 14.7409 4.26478 13.7256 3.32957C12.7103 2.39437 11.3804 1.87515 9.99998 1.875ZM15.665 0.447916C15.7429 0.37107 15.8353 0.310336 15.9367 0.269185C16.0382 0.228034 16.1467 0.207272 16.2562 0.208084C16.3656 0.208897 16.4739 0.231268 16.5747 0.273921C16.6755 0.316573 16.7669 0.378671 16.8437 0.456666C18.3879 2.02417 19.4025 4.27958 19.5812 6.81625C19.5895 6.92571 19.5761 7.03573 19.5417 7.13998C19.5073 7.24424 19.4527 7.34067 19.3809 7.42375C19.3092 7.50682 19.2217 7.5749 19.1236 7.62408C19.0254 7.67325 18.9185 7.70255 18.809 7.71029C18.6995 7.71803 18.5896 7.70406 18.4855 7.66917C18.3814 7.63429 18.2852 7.57919 18.2025 7.50704C18.1198 7.43488 18.0521 7.34709 18.0034 7.2487C17.9547 7.15032 17.9259 7.04329 17.9187 6.93375C17.7658 4.76083 16.9 2.88875 15.6562 1.62667C15.5794 1.54871 15.5187 1.45637 15.4775 1.35493C15.4363 1.25349 15.4156 1.14494 15.4164 1.03548C15.4172 0.926014 15.4396 0.817782 15.4822 0.716966C15.5249 0.616151 15.587 0.524726 15.665 0.447916ZM3.15665 0.456666C3.3118 0.299249 3.52313 0.209913 3.74415 0.208311C3.96517 0.206709 4.17777 0.292972 4.33519 0.448124C4.49261 0.603276 4.58194 0.814606 4.58354 1.03563C4.58515 1.25665 4.49888 1.46925 4.34373 1.62667C3.09998 2.88917 2.23456 4.76083 2.08123 6.93375C2.06463 7.15344 1.96172 7.35761 1.79499 7.50162C1.62825 7.64564 1.41128 7.71776 1.19152 7.70223C0.97175 7.6867 0.767077 7.58477 0.622259 7.41874C0.477442 7.25271 0.404264 7.03609 0.418731 6.81625C0.597481 4.27958 1.61248 2.02417 3.15623 0.456666" fill="url(#paint0_linear_68_39)"/>
<defs>
<linearGradient id="paint0_linear_68_39" x1="10.0003" y1="0.208061" x2="10.0003" y2="19.7903" gradientUnits="userSpaceOnUse">
<stop stop-color="#008080"/>
<stop offset="1" stop-color="#005F5F"/>
</linearGradient>
</defs>
</svg>
