<svg width="29" height="29" viewBox="0 0 29 29" fill="none" xmlns="http://www.w3.org/2000/svg">
<path d="M16.269 25.375C14.421 25.375 12.847 24.7297 11.5468 23.4392C10.2466 22.1488 9.59656 20.5787 9.59656 18.7292V18.1045C8.066 17.9619 6.77711 17.3174 5.72989 16.1711C4.68267 15.0264 4.15906 13.6638 4.15906 12.0833V6.41383C4.15906 6.13753 4.2525 5.90553 4.43939 5.71783C4.62628 5.53014 4.85828 5.43669 5.13539 5.4375H7.78406V4.83333C7.78406 4.66175 7.84206 4.51836 7.95806 4.40316C8.07406 4.28797 8.21785 4.22997 8.38943 4.22916C8.56102 4.22836 8.7044 4.28636 8.8196 4.40316C8.93479 4.51997 8.99239 4.66336 8.99239 4.83333V7.25C8.99239 7.42158 8.93439 7.56497 8.81839 7.68016C8.70239 7.79616 8.559 7.85417 8.38822 7.85417C8.21664 7.85417 8.07285 7.79616 7.95685 7.68016C7.84085 7.56416 7.78325 7.42078 7.78406 7.25V6.64583H5.36739V12.0833C5.36739 13.4125 5.84065 14.5503 6.78718 15.4969C7.73371 16.4434 8.87156 16.9167 10.2007 16.9167C11.5299 16.9167 12.6677 16.4434 13.6143 15.4969C14.5608 14.5503 15.0341 13.4125 15.0341 12.0833V6.64583H12.6174V7.25C12.6174 7.42158 12.5594 7.56497 12.4434 7.68016C12.3282 7.79616 12.1848 7.85417 12.0132 7.85417C11.8416 7.85417 11.6983 7.79616 11.5831 7.68016C11.4679 7.56416 11.4099 7.42078 11.4091 7.25V4.83333C11.4091 4.66175 11.4671 4.51836 11.5831 4.40316C11.6991 4.28797 11.8428 4.22997 12.0144 4.22916C12.186 4.22836 12.3294 4.28636 12.4446 4.40316C12.5598 4.51997 12.6174 4.66336 12.6174 4.83333V5.4375H15.2661C15.5432 5.4375 15.7752 5.53094 15.9621 5.71783C16.1489 5.90472 16.2424 6.13672 16.2424 6.41383V12.0833C16.2424 13.6638 15.7188 15.0268 14.6716 16.1723C13.6243 17.3178 12.3354 17.9619 10.8049 18.1045V18.7292C10.8049 20.2396 11.3358 21.5236 12.3975 22.5813C13.4608 23.6382 14.7509 24.1667 16.2678 24.1667C17.7782 24.1667 19.0618 23.6382 20.1187 22.5813C21.1756 21.5244 21.7045 20.2404 21.7053 18.7292V16.8442C21.1398 16.7072 20.6729 16.4072 20.3048 15.944C19.9367 15.48 19.7526 14.9523 19.7526 14.361C19.7526 13.6505 20.0015 13.0468 20.4993 12.5497C20.9972 12.0527 21.6013 11.8042 22.3118 11.8042C23.0223 11.8042 23.6257 12.0527 24.1219 12.5497C24.6182 13.0468 24.8659 13.6505 24.8651 14.361C24.8651 14.9531 24.681 15.4808 24.3128 15.944C23.9455 16.4063 23.4791 16.7068 22.9136 16.8454V18.7292C22.9136 20.5787 22.2683 22.1488 20.9778 23.4392C19.6873 24.7297 18.1177 25.375 16.269 25.375ZM23.2616 15.3144C23.5242 15.0518 23.6555 14.7336 23.6555 14.3598C23.6555 13.9869 23.5242 13.6691 23.2616 13.4065C22.999 13.1438 22.6808 13.0125 22.307 13.0125C21.9332 13.0125 21.6154 13.1438 21.3536 13.4065C21.0918 13.6691 20.9605 13.9873 20.9597 14.361C20.9589 14.7348 21.0902 15.0526 21.3536 15.3144C21.6171 15.5762 21.9353 15.7075 22.3082 15.7083C22.6812 15.7091 22.999 15.5778 23.2616 15.3144Z" fill="white"/>
</svg>
