<svg width="33" height="33" viewBox="0 0 33 33" fill="none" xmlns="http://www.w3.org/2000/svg">
<path d="M14.4375 20.9688C14.1722 20.9485 13.9254 20.8251 13.75 20.625L9.62497 16.5C9.53307 16.3076 9.50308 16.0914 9.53914 15.8812C9.57521 15.671 9.67554 15.4772 9.82634 15.3264C9.97713 15.1756 10.171 15.0752 10.3812 15.0392C10.5913 15.0031 10.8075 15.0331 11 15.125L14.3962 18.5213L26.125 6.87501C26.3174 6.7831 26.5336 6.75311 26.7438 6.78917C26.954 6.82524 27.1478 6.92557 27.2986 7.07637C27.4494 7.22717 27.5497 7.421 27.5858 7.63119C27.6219 7.84137 27.5919 8.05757 27.5 8.25001L15.125 20.625C14.9496 20.8251 14.7028 20.9485 14.4375 20.9688Z" fill="white"/>
<path d="M16.5 28.875C14.2883 28.8714 12.1179 28.2752 10.2148 27.1483C8.31166 26.0214 6.74532 24.4051 5.67878 22.4675C4.86917 21.0232 4.36818 19.4266 4.20753 17.7787C3.95587 15.3616 4.42149 12.9239 5.54629 10.7696C6.67109 8.6154 8.40528 6.84003 10.5325 5.66499C11.9768 4.85538 13.5734 4.3544 15.2213 4.19374C16.8632 4.01866 18.5236 4.17768 20.1025 4.66124C20.2434 4.68939 20.3769 4.74667 20.4943 4.82939C20.6118 4.91212 20.7106 5.01848 20.7846 5.14164C20.8585 5.26481 20.906 5.40207 20.9238 5.54463C20.9416 5.68718 20.9294 5.83189 20.888 5.96947C20.8467 6.10705 20.777 6.23446 20.6835 6.34355C20.59 6.45264 20.4748 6.54099 20.3452 6.60294C20.2156 6.6649 20.0744 6.69908 19.9308 6.70331C19.7872 6.70754 19.6443 6.68171 19.5113 6.62749C18.1757 6.22515 16.7732 6.09425 15.3863 6.24249C14.0152 6.38174 12.6866 6.79808 11.4813 7.46624C10.3196 8.10714 9.29247 8.96617 8.45628 9.99624C7.59534 11.0456 6.95243 12.2562 6.56522 13.5571C6.17801 14.858 6.05428 16.2231 6.20128 17.5725C6.34053 18.9436 6.75686 20.2721 7.42503 21.4775C8.06592 22.6392 8.92495 23.6663 9.95503 24.5025C11.0044 25.3634 12.215 26.0063 13.5159 26.3935C14.8168 26.7808 16.1819 26.9045 17.5313 26.7575C18.9024 26.6182 20.2309 26.2019 21.4363 25.5337C22.598 24.8929 23.6251 24.0338 24.4613 23.0037C25.3222 21.9544 25.9651 20.7438 26.3523 19.4429C26.7395 18.142 26.8633 16.7768 26.7163 15.4275C26.6889 15.1412 26.7764 14.8558 26.9595 14.6341C27.1426 14.4123 27.4063 14.2723 27.6925 14.245C27.9788 14.2176 28.2642 14.3051 28.486 14.4882C28.7077 14.6713 28.8477 14.935 28.875 15.2212C29.1254 17.6398 28.6577 20.0786 27.5304 22.233C26.4031 24.3873 24.6661 26.1619 22.5363 27.335C21.0766 28.1777 19.4554 28.7025 17.7788 28.875H16.5Z" fill="white"/>
</svg>
