<svg width="10" height="10" viewBox="0 0 10 10" fill="none" xmlns="http://www.w3.org/2000/svg">
<path d="M9.0625 10H0.9375C0.41875 10 0 9.58125 0 9.0625V1.5625C0 1.04375 0.41875 0.625 0.9375 0.625H9.0625C9.58125 0.625 10 1.04375 10 1.5625V9.0625C10 9.58125 9.58125 10 9.0625 10ZM0.9375 1.25C0.7625 1.25 0.625 1.3875 0.625 1.5625V9.0625C0.625 9.2375 0.7625 9.375 0.9375 9.375H9.0625C9.2375 9.375 9.375 9.2375 9.375 9.0625V1.5625C9.375 1.3875 9.2375 1.25 9.0625 1.25H0.9375Z" fill="#808080"/>
<path d="M2.8125 2.5C2.6375 2.5 2.5 2.3625 2.5 2.1875V0.3125C2.5 0.1375 2.6375 0 2.8125 0C2.9875 0 3.125 0.1375 3.125 0.3125V2.1875C3.125 2.3625 2.9875 2.5 2.8125 2.5ZM7.1875 2.5C7.0125 2.5 6.875 2.3625 6.875 2.1875V0.3125C6.875 0.1375 7.0125 0 7.1875 0C7.3625 0 7.5 0.1375 7.5 0.3125V2.1875C7.5 2.3625 7.3625 2.5 7.1875 2.5ZM9.6875 3.75H0.3125C0.1375 3.75 0 3.6125 0 3.4375C0 3.2625 0.1375 3.125 0.3125 3.125H9.6875C9.8625 3.125 10 3.2625 10 3.4375C10 3.6125 9.8625 3.75 9.6875 3.75Z" fill="#808080"/>
</svg>
