<svg width="30" height="30" viewBox="0 0 30 30" fill="none" xmlns="http://www.w3.org/2000/svg">
<path d="M13.9321 29.5158C14.2329 29.8497 14.6089 30 15 30C15.3911 30 15.7671 29.833 16.0679 29.5158L27.349 16.9924C30.8837 13.0684 30.8837 6.89023 27.349 2.94955C23.8894 -0.857554 18.5498 -0.974438 15 2.61559C11.4502 -0.974438 6.11055 -0.874251 2.65104 2.94955C-0.88368 6.89023 -0.88368 13.0684 2.65104 16.9924L13.9321 29.5158ZM4.78691 5.30394C5.97518 4.00151 7.47932 3.35029 8.9985 3.35029C10.5177 3.35029 12.0218 4.00151 13.195 5.30394L13.9471 6.13883C14.5337 6.79004 15.4813 6.79004 16.0679 6.13883L16.82 5.30394C19.1665 2.69908 22.8666 2.69908 25.2281 5.30394C27.5746 7.92549 27.5746 12.0165 25.2281 14.6213L15.015 25.9591L4.80196 14.6213C4.24439 14.0136 3.8015 13.2886 3.49917 12.4887C3.19684 11.6888 3.04113 10.8301 3.04113 9.96263C3.04113 9.09518 3.19684 8.23643 3.49917 7.43654C3.8015 6.63666 4.24439 5.91167 4.80196 5.30394H4.78691Z" fill="#FF0000" fill-opacity="0.8"/>
</svg>
