<svg width="10" height="10" viewBox="0 0 10 10" fill="none" xmlns="http://www.w3.org/2000/svg">
<path d="M5 0C7.7615 0 10 2.2385 10 5C10 7.7615 7.7615 10 5 10C2.2385 10 0 7.7615 0 5C0 2.2385 2.2385 0 5 0ZM5 0.6975C3.85891 0.6975 2.76455 1.1508 1.95767 1.95767C1.1508 2.76455 0.6975 3.85891 0.6975 5C0.6975 6.14109 1.1508 7.23545 1.95767 8.04233C2.76455 8.8492 3.85891 9.3025 5 9.3025C6.14109 9.3025 7.23545 8.8492 8.04233 8.04233C8.8492 7.23545 9.3025 6.14109 9.3025 5C9.3025 3.85891 8.8492 2.76455 8.04233 1.95767C7.23545 1.1508 6.14109 0.6975 5 0.6975ZM4.535 2.7905C4.7275 2.7905 4.8835 2.947 4.8835 3.1395V5.5815H7.3255C7.41571 5.58492 7.50109 5.62315 7.5637 5.68818C7.62631 5.75321 7.66129 5.83998 7.66129 5.93025C7.66129 6.02052 7.62631 6.10729 7.5637 6.17232C7.50109 6.23735 7.41571 6.27558 7.3255 6.279H4.535C4.44252 6.27874 4.3539 6.24188 4.28851 6.17649C4.22312 6.1111 4.18626 6.02248 4.186 5.93V3.14C4.186 2.947 4.342 2.7905 4.535 2.7905Z" fill="#808080"/>
</svg>
