<svg width="25" height="25" viewBox="0 0 25 25" fill="none" xmlns="http://www.w3.org/2000/svg">
<path d="M3.125 10.4165V20.8335C3.125 21.1097 3.23473 21.3746 3.43005 21.5699C3.62537 21.7653 3.89028 21.875 4.1665 21.875H20.8335C21.1097 21.875 21.3746 21.7653 21.57 21.5699C21.7653 21.3746 21.875 21.1097 21.875 20.8335V10.4165M3.125 10.4165H21.875M3.125 10.4165V6.25C3.125 5.97377 3.23473 5.70886 3.43005 5.51354C3.62537 5.31823 3.89028 5.2085 4.1665 5.2085H20.8335C21.1097 5.2085 21.3746 5.31823 21.57 5.51354C21.7653 5.70886 21.875 5.97377 21.875 6.25V10.4165" stroke="#0E42EB" stroke-linecap="round" stroke-linejoin="round"/>
<path d="M16.6665 3.125V7.2915M8.3335 3.125V7.2915" stroke="#344054" stroke-linecap="round" stroke-linejoin="round"/>
</svg>
