<svg width="22" height="22" viewBox="0 0 22 22" fill="none" xmlns="http://www.w3.org/2000/svg">
<path d="M9.68183 13.2843L7.39383 10.9963C7.30767 10.9108 7.20225 10.8649 7.07758 10.8588C6.95292 10.8527 6.842 10.8986 6.74483 10.9963C6.64767 11.0941 6.59878 11.2023 6.59817 11.3208C6.59756 11.4394 6.64644 11.5476 6.74483 11.6453L9.163 14.0635C9.31089 14.212 9.48353 14.2863 9.68092 14.2863C9.87831 14.2863 10.0512 14.212 10.1997 14.0635L15.2203 9.04383C15.3059 8.95767 15.3517 8.85225 15.3578 8.72758C15.3639 8.60292 15.3181 8.492 15.2203 8.39483C15.1226 8.29767 15.0144 8.24878 14.8958 8.24817C14.7773 8.24756 14.6691 8.29644 14.5713 8.39483L9.68183 13.2843ZM11.0028 19.25C9.86242 19.25 8.78992 19.0337 7.78525 18.601C6.78119 18.1677 5.90761 17.5798 5.1645 16.8373C4.42139 16.0948 3.83319 15.2222 3.39992 14.2193C2.96664 13.2165 2.75 12.1443 2.75 11.0028C2.75 9.8612 2.96664 8.78869 3.39992 7.78525C3.83258 6.78119 4.41956 5.90761 5.16083 5.1645C5.90211 4.42139 6.77508 3.83319 7.77975 3.39992C8.78442 2.96664 9.85692 2.75 10.9972 2.75C12.1376 2.75 13.2101 2.96664 14.2148 3.39992C15.2188 3.83258 16.0924 4.41986 16.8355 5.16175C17.5786 5.90364 18.1668 6.77661 18.6001 7.78067C19.0334 8.78472 19.25 9.85692 19.25 10.9972C19.25 12.1376 19.0337 13.2101 18.601 14.2148C18.1683 15.2194 17.5804 16.093 16.8373 16.8355C16.0942 17.578 15.2216 18.1662 14.2193 18.6001C13.2171 19.034 12.1449 19.2506 11.0028 19.25ZM11 18.3333C13.0472 18.3333 14.7812 17.6229 16.2021 16.2021C17.6229 14.7812 18.3333 13.0472 18.3333 11C18.3333 8.95278 17.6229 7.21875 16.2021 5.79792C14.7812 4.37708 13.0472 3.66667 11 3.66667C8.95278 3.66667 7.21875 4.37708 5.79792 5.79792C4.37708 7.21875 3.66667 8.95278 3.66667 11C3.66667 13.0472 4.37708 14.7812 5.79792 16.2021C7.21875 17.6229 8.95278 18.3333 11 18.3333Z" fill="#008080"/>
</svg>
