<svg width="12" height="25" viewBox="0 0 12 25" fill="none" xmlns="http://www.w3.org/2000/svg">
<path d="M5.83333 24.296C4.20875 24.296 2.83062 23.7068 1.69896 22.5285C0.566319 21.3481 0 19.9126 0 18.222C0 17.1246 0.264444 16.1189 0.793333 15.2047C1.32222 14.2906 2.03 13.5445 2.91667 12.9665V3.037C2.91667 2.18057 3.19715 1.46029 3.75812 0.876175C4.3191 0.292058 5.01083 0 5.83333 0C6.65583 0 7.34757 0.292058 7.90854 0.876175C8.46951 1.46029 8.75 2.18057 8.75 3.037V12.9665C9.63667 13.5435 10.3396 14.2896 10.8587 15.2047C11.3789 16.1189 11.6482 17.1246 11.6667 18.222C11.6472 19.9136 11.0717 21.3491 9.94 22.5285C8.80833 23.7078 7.43944 24.297 5.83333 24.296ZM5.83333 22.7775C7.04861 22.7775 8.0816 22.3346 8.93229 21.4488C9.78299 20.563 10.2083 19.4874 10.2083 18.222C10.2083 17.4881 10.0567 16.8047 9.75333 16.172C9.45 15.5393 9.01833 15.0078 8.45833 14.5776L7.29167 13.6665V3.037C7.29167 2.60676 7.15167 2.24637 6.87167 1.95583C6.59167 1.66529 6.24556 1.51951 5.83333 1.5185C5.42111 1.51749 5.075 1.66326 4.795 1.95583C4.515 2.24839 4.375 2.60878 4.375 3.037V13.6665L3.20833 14.5776C2.64931 15.0078 2.21764 15.5393 1.91333 16.172C1.60903 16.8047 1.45736 17.4881 1.45833 18.222C1.45833 19.4874 1.88368 20.563 2.73437 21.4488C3.58507 22.3346 4.61806 22.7775 5.83333 22.7775Z" fill="#008080"/>
</svg>
