<svg width="23" height="22" viewBox="0 0 23 22" fill="none" xmlns="http://www.w3.org/2000/svg">
<path d="M3.72838 21.6484C2.79579 21.6484 1.90038 21.2624 1.18676 20.5481C-0.395525 18.9607 -0.395525 16.3788 1.18639 14.7924L13.5243 1.69071C15.4493 -0.237379 18.398 -0.0641292 20.5498 2.0905C21.514 3.05643 22.0551 4.44897 22.0348 5.91265C22.0145 7.36089 21.4487 8.74687 20.4817 9.71556L11.1572 19.6424C10.8977 19.9205 10.4625 19.9332 10.1854 19.6723C9.90905 19.411 9.89564 18.9752 10.1562 18.6981L19.4949 8.75615C20.2253 8.02431 20.6444 6.98616 20.6598 5.89338C20.6753 4.79993 20.2803 3.76901 19.5777 3.06466C18.2577 1.74191 16.1085 1.04926 14.5108 2.65079L2.17325 15.7525C1.11244 16.816 1.11279 18.5241 2.1595 19.5736C2.65036 20.0648 3.23301 20.304 3.85348 20.2666C4.46742 20.2291 5.09855 19.9142 5.63067 19.3807L15.4475 8.93209C15.8032 8.57562 16.5182 7.70181 15.7905 6.97237C15.3784 6.55953 15.0889 6.58496 14.9937 6.59287C14.7218 6.61693 14.4042 6.80496 14.0745 7.13565L6.68564 14.9941C6.42473 15.2715 5.9892 15.2849 5.71384 15.0233C5.43712 14.7628 5.4244 14.3262 5.68462 14.0498L13.087 6.17659C13.6689 5.59187 14.264 5.27493 14.8697 5.22062C15.3423 5.17866 16.0453 5.2794 16.7624 5.99853C17.8266 7.06482 17.6943 8.6289 16.4341 9.89184L6.61725 20.3398C5.8335 21.1263 4.88714 21.5831 3.9377 21.6415C3.86792 21.6463 3.79814 21.6484 3.72836 21.6484L3.72838 21.6484Z" fill="#008080"/>
</svg>
