<svg width="24" height="24" viewBox="0 0 24 24" fill="none" xmlns="http://www.w3.org/2000/svg">
<path d="M2.73 20L12 4L21.27 20H2.73ZM4.45 19H19.55L12 6L4.45 19ZM12.434 17.434C12.5553 17.3127 12.616 17.168 12.616 17C12.616 16.832 12.5553 16.6873 12.434 16.566C12.3127 16.4447 12.168 16.3843 12 16.385C11.832 16.3857 11.6873 16.446 11.566 16.566C11.4447 16.686 11.384 16.8307 11.384 17C11.384 17.1693 11.4447 17.314 11.566 17.434C11.6873 17.554 11.832 17.6143 12 17.615C12.168 17.6157 12.3127 17.5553 12.434 17.434ZM11.5 15.384H12.5V10.384H11.5V15.384Z" fill="#D27E00"/>
</svg>
