<svg width="45" height="45" viewBox="0 0 45 45" fill="none" xmlns="http://www.w3.org/2000/svg">
<path d="M22.3594 41.7656C12.5508 41.7656 1.96875 35.6133 1.96875 22.1133C1.96875 8.61328 12.5508 2.46094 22.3594 2.46094C27.8086 2.46094 32.8359 4.25391 36.5625 7.52344C40.6055 11.1094 42.75 16.1719 42.75 22.1133C42.75 28.0547 40.6055 33.082 36.5625 36.668C32.8359 39.9375 27.7734 41.7656 22.3594 41.7656Z" fill="url(#paint0_radial_214_551)"/>
<path d="M39.1957 10.4308C41.0695 13.4543 42.0469 17.0543 42.0469 21.0586C42.0469 27 39.9023 32.0273 35.8594 35.6133C32.1328 38.8828 27.0703 40.7109 21.6562 40.7109C15.307 40.7109 8.64843 38.1269 4.71796 32.6461C8.50077 38.8547 15.6164 41.7656 22.3594 41.7656C27.7734 41.7656 32.8359 39.9375 36.5625 36.668C40.6055 33.082 42.75 28.0547 42.75 22.1133C42.75 17.6344 41.5301 13.6547 39.1957 10.4308Z" fill="#EB8F00"/>
<path opacity="0.8" d="M9.5625 35.0508C12.9603 35.0508 15.7148 32.2963 15.7148 28.8984C15.7148 25.5006 12.9603 22.7461 9.5625 22.7461C6.16465 22.7461 3.41016 25.5006 3.41016 28.8984C3.41016 32.2963 6.16465 35.0508 9.5625 35.0508Z" fill="url(#paint1_radial_214_551)"/>
<path opacity="0.8" d="M33.3563 35.0508C36.7541 35.0508 39.5086 32.2963 39.5086 28.8984C39.5086 25.5006 36.7541 22.7461 33.3563 22.7461C29.9584 22.7461 27.2039 25.5006 27.2039 28.8984C27.2039 32.2963 29.9584 35.0508 33.3563 35.0508Z" fill="url(#paint2_radial_214_551)"/>
<path opacity="0.8" d="M35.0859 35.0508C38.4838 35.0508 41.2383 32.2963 41.2383 28.8984C41.2383 25.5006 38.4838 22.7461 35.0859 22.7461C31.6881 22.7461 28.9336 25.5006 28.9336 28.8984C28.9336 32.2963 31.6881 35.0508 35.0859 35.0508Z" fill="url(#paint3_radial_214_551)"/>
<path d="M19.6875 33.75H24.9609" stroke="#35220B" stroke-linecap="round" stroke-linejoin="round"/>
<path d="M31.3594 14.6953C34.7379 14.6953 37.4766 17.434 37.4766 20.8125C37.4766 24.191 34.7379 26.9297 31.3594 26.9297C27.9809 26.9297 25.2422 24.191 25.2422 20.8125C25.2457 17.434 27.9809 14.6988 31.3594 14.6953Z" fill="white"/>
<path d="M31.3594 23.4844C32.8156 23.4844 33.9961 22.2881 33.9961 20.8125C33.9961 19.3369 32.8156 18.1406 31.3594 18.1406C29.9032 18.1406 28.7227 19.3369 28.7227 20.8125C28.7227 22.2881 29.9032 23.4844 31.3594 23.4844Z" fill="#422B0D"/>
<path d="M13.6055 14.6602C16.984 14.6602 19.7227 17.3988 19.7227 20.7773C19.7227 24.1559 16.984 26.8945 13.6055 26.8945C10.227 26.8945 7.48828 24.1559 7.48828 20.7773C7.4918 17.3988 10.227 14.6637 13.6055 14.6602Z" fill="white"/>
<path d="M13.6055 23.4492C15.0617 23.4492 16.2422 22.253 16.2422 20.7773C16.2422 19.3017 15.0617 18.1055 13.6055 18.1055C12.1492 18.1055 10.9688 19.3017 10.9688 20.7773C10.9688 22.253 12.1492 23.4492 13.6055 23.4492Z" fill="#422B0D"/>
<path d="M16.3687 9.58711H16.4039C16.4833 9.61619 16.5677 9.62935 16.6522 9.62584C16.7367 9.62232 16.8196 9.60219 16.8964 9.56661C16.9731 9.53103 17.042 9.48068 17.0993 9.41845C17.1565 9.35622 17.201 9.28331 17.2301 9.2039C17.2592 9.1245 17.2723 9.04014 17.2688 8.95564C17.2653 8.87115 17.2452 8.78817 17.2096 8.71145C17.174 8.63474 17.1236 8.56578 17.0614 8.50852C16.9992 8.45126 16.9263 8.40682 16.8469 8.37773C16.2176 8.09648 15.5496 7.91719 14.8641 7.85039C13.0184 7.6289 11.1551 8.12109 9.66093 9.22851C8.95781 9.75937 9.68554 10.6559 10.3816 10.3043C12.2403 9.40026 14.3491 9.14766 16.3687 9.58711ZM28.4273 9.58711H28.3922C28.3128 9.61619 28.2284 9.62935 28.1439 9.62584C28.0594 9.62232 27.9765 9.60219 27.8997 9.56661C27.823 9.53103 27.7541 9.48068 27.6968 9.41845C27.6395 9.35622 27.5951 9.28331 27.566 9.2039C27.5369 9.1245 27.5238 9.04014 27.5273 8.95564C27.5308 8.87115 27.5509 8.78817 27.5865 8.71145C27.6221 8.63474 27.6724 8.56578 27.7347 8.50852C27.7969 8.45126 27.8698 8.40682 27.9492 8.37773C28.5785 8.09648 29.2465 7.91719 29.932 7.85039C31.7777 7.6289 33.641 8.12109 35.1352 9.22851C35.8383 9.75937 35.1105 10.6559 34.432 10.3043C32.5687 9.39726 30.4523 9.14414 28.4273 9.58711Z" fill="#422B0D"/>
<defs>
<radialGradient id="paint0_radial_214_551" cx="0" cy="0" r="1" gradientUnits="userSpaceOnUse" gradientTransform="translate(22.3594 22.1133) scale(20.025)">
<stop offset="0.5" stop-color="#FDE030"/>
<stop offset="0.92" stop-color="#F7C02B"/>
<stop offset="1" stop-color="#F4A223"/>
</radialGradient>
<radialGradient id="paint1_radial_214_551" cx="0" cy="0" r="1" gradientUnits="userSpaceOnUse" gradientTransform="translate(9.60533 28.8447) scale(6.69769 6.35597)">
<stop stop-color="#ED7770"/>
<stop offset="0.9" stop-color="#ED7770" stop-opacity="0"/>
</radialGradient>
<radialGradient id="paint2_radial_214_551" cx="0" cy="0" r="1" gradientUnits="userSpaceOnUse" gradientTransform="translate(33.3987 28.8447) scale(6.69769 6.35597)">
<stop stop-color="#ED7770"/>
<stop offset="0.9" stop-color="#ED7770" stop-opacity="0"/>
</radialGradient>
<radialGradient id="paint3_radial_214_551" cx="0" cy="0" r="1" gradientUnits="userSpaceOnUse" gradientTransform="translate(51.8309 370.512) scale(6.83437)">
<stop stop-color="#ED7770"/>
<stop offset="0.9" stop-color="#ED7770" stop-opacity="0"/>
</radialGradient>
</defs>
</svg>
