<svg width="45" height="45" viewBox="0 0 45 45" fill="none" xmlns="http://www.w3.org/2000/svg">
<path d="M5.73399 22.8973C7.63243 16.4637 15.4231 13.8656 21.4348 13.8446C27.1266 13.8235 33.9188 15.5321 37.6981 20.141C38.5453 21.1711 39.1395 22.3805 39.3645 23.6883C39.8285 26.3496 38.4434 29.0953 36.3234 30.7231C34.3939 32.211 32.1561 33.2488 29.7738 33.7606C28.466 34.0418 27.109 34.2422 25.7695 34.3512C24.0434 34.4883 22.268 34.4672 20.5418 34.3406C19.0441 34.2317 17.5289 34.0348 16.0594 33.7465C13.3277 33.2051 10.3711 32.4 8.1879 30.6246C7.18243 29.8055 6.39493 28.5961 5.9836 27.3832C5.54767 26.1176 5.35079 24.1981 5.73399 22.8973Z" fill="#855C52"/>
<path d="M44.9015 26.0473C44.9261 24.743 44.6765 23.4035 44.0437 22.2363C43.6043 21.4207 42.9609 20.693 42.1136 20.2184C41.6812 19.9758 41.2066 19.807 40.7109 19.7086C40.1554 19.5996 39.6316 19.5961 39.157 19.357C38.7351 19.1461 38.4328 18.6715 38.1199 18.3234C37.7719 17.9438 37.4062 17.5816 37.023 17.2406C36.2542 16.553 35.4246 15.9364 34.5445 15.3984C32.523 14.1539 30.2695 13.2996 27.9527 12.8461C23.6883 12.0129 18.9879 11.8336 14.8183 13.2117C12.3117 14.0414 9.84372 15.2262 7.85037 17.0051C7.41808 17.3889 7.02045 17.8101 6.66208 18.2637C6.35271 18.6574 6.06443 19.016 5.63201 19.2902C5.50193 19.3711 5.38943 19.4414 5.23826 19.4695C4.55622 19.5926 3.86365 19.7121 3.22029 19.9723C1.4238 20.693 0.435912 23.1645 0.200365 24.9258C0.0210683 26.2617 -0.0070567 27.7207 0.776928 28.8703C1.68747 30.2027 3.41013 30.1219 4.38747 31.2961C5.19255 32.2629 5.35779 33.6938 5.97302 34.7836C6.88357 36.3973 8.18083 37.7613 9.67497 38.8477C12.6 40.9676 16.2316 42.075 19.8105 42.3668C21.8355 42.532 24.0222 42.4793 26.0332 42.1945C29.8687 41.6496 33.5988 39.8566 36.2777 37.0406C37.1707 36.0984 37.9441 35.0402 38.5488 33.8906C38.8582 33.3 39.1219 32.6813 39.3398 32.052C39.7336 30.9023 40.4578 30.7688 41.5336 30.4945C41.9906 30.3785 42.4301 30.2098 42.8344 29.9777C43.6254 29.5207 44.209 28.8352 44.5324 28.0266C44.7855 27.3973 44.8875 26.7188 44.9015 26.0473ZM5.73396 22.8973C7.6324 16.4637 15.423 13.8656 21.4347 13.8445C27.1265 13.8234 33.9187 15.532 37.698 20.141C38.5453 21.1711 39.1394 22.3805 39.3644 23.6883C39.8285 26.3496 38.4433 29.0953 36.3234 30.723C34.3939 32.211 32.1561 33.2488 29.7738 33.7605C28.466 34.0418 27.109 34.2422 25.7695 34.3512C24.0433 34.4883 22.2679 34.4672 20.5418 34.3406C19.0441 34.2316 17.5289 34.0348 16.0594 33.7465C13.3277 33.2051 10.3711 32.4 8.18787 30.6246C7.1824 29.8055 6.3949 28.5961 5.98357 27.3832C5.54763 26.1176 5.35076 24.198 5.73396 22.8973Z" fill="#B89278"/>
<mask id="mask0_205_191" style="mask-type:luminance" maskUnits="userSpaceOnUse" x="3" y="12" width="37" height="23">
<path d="M3.96915 18.0422C5.86407 11.6051 15.5496 12.8813 21.5648 12.8602C27.2566 12.8391 34.3969 14.3262 38.1762 18.9352C39.0199 19.9652 39.1359 22.3805 39.3645 23.6883C39.8285 26.3496 38.4434 29.0953 36.3234 30.7231C34.3939 32.211 32.1561 33.2488 29.7738 33.7606C28.466 34.0418 27.109 34.2422 25.7695 34.3512C24.0434 34.4883 22.268 34.4672 20.5418 34.3406C19.0441 34.2317 17.5289 34.0348 16.0594 33.7465C13.3277 33.2051 10.3711 32.4 8.1879 30.6246C7.18243 29.8055 6.39493 28.5961 5.9836 27.3832C5.54766 26.1176 3.58946 19.3395 3.96915 18.0422Z" fill="white"/>
</mask>
<g mask="url(#mask0_205_191)">
<path d="M15.9574 19.2691C15.8976 18.8051 16.33 18.2039 16.5586 17.8172C16.8609 17.3109 17.2371 16.6429 17.659 16.2246C18.007 15.8765 18.9597 15.6058 19.4414 15.6937C19.7297 15.7429 20.0953 15.9574 20.3554 16.0769C20.823 16.2843 21.3504 16.5375 21.7898 16.7906C22.18 17.0156 22.8761 17.6414 23.3894 17.4515C23.7269 17.325 24.0961 16.9418 24.4371 16.7695C24.9679 16.5023 25.5164 16.2668 26.0367 15.9855C26.3566 15.8133 26.8277 15.423 27.2109 15.4265C27.7664 15.4301 28.2515 15.8941 28.6593 16.214C28.9511 16.4426 29.2605 16.6008 29.5347 16.8609C29.8019 17.1176 29.9883 17.4129 30.2273 17.6906C30.4593 17.9613 31.1379 18.5308 31.1484 18.9176C31.1554 19.2972 29.9988 19.7718 29.6929 19.8984C29.2113 20.0988 28.6875 20.1761 28.1918 20.3449C27.784 20.4855 27.2144 20.4996 26.8488 20.7211C26.2722 21.0691 26.1668 22.173 25.984 22.7566C25.875 23.1082 25.7871 23.3508 25.7836 23.7375C25.7765 24.2367 25.33 24.5285 24.9187 24.8097C24.3703 25.1859 23.8043 25.432 23.2136 25.7238C22.6722 25.991 22.3488 26.0613 21.7371 26.0613C21.1605 26.0648 21.1078 25.9418 20.9355 25.3758C20.7035 24.6164 20.591 23.864 20.264 23.1328C20.0918 22.7496 19.8843 22.4015 19.7332 22.0218C19.6172 21.7336 19.5609 21.3715 19.3078 21.1605C18.9879 20.8828 18.5414 20.6648 18.1863 20.4152C17.9297 20.2394 17.7047 19.9652 17.3847 19.8984L15.9574 19.2691Z" fill="white"/>
<path d="M6.89412 24.4512C6.84842 24.2543 6.80974 24.0469 6.73592 23.8711C6.47928 23.2629 6.54607 22.5914 6.35623 21.9797C6.1242 21.2168 5.7656 20.5312 5.75154 19.7086C5.73748 18.8297 5.88865 18.2672 6.58123 17.6976C6.99959 17.3531 7.37576 17.0226 7.94178 17.0402C9.17928 17.0789 10.0125 18.014 11.025 18.5801C11.4609 18.8262 12.0129 18.7277 12.4804 18.8894C13.2433 19.1531 13.5738 19.807 13.5211 20.5734C13.4648 21.3258 13.3769 22.1308 13.3875 22.8762C13.398 23.3332 13.5949 24.1383 13.1027 24.4336C12.8461 24.5883 12.4172 24.5812 12.1219 24.5461C11.1656 24.4301 10.4097 23.7621 9.51678 23.4738C8.64139 23.189 8.15271 23.9168 7.71678 24.532C7.5867 24.7148 7.25623 25.2527 7.03474 24.8519C6.96795 24.7324 6.92576 24.5953 6.89412 24.4512Z" fill="#ED6C30"/>
<path d="M6.22265 27.2179C6.21562 28.4343 6.85898 29.2218 7.38281 30.2519C7.96992 31.405 8.63789 32.284 9.86484 32.85C10.5574 33.1699 11.4961 33.2472 12.2273 33.0328C13.3664 32.6918 13.957 31.7953 14.3543 30.7195C14.7727 29.5945 14.7305 28.35 14.4738 27.1898C14.3859 26.782 14.5266 26.325 14.4 25.9523C14.2453 25.4988 13.6969 25.2035 13.275 25.0523C12.8215 24.8906 12.2414 24.9961 11.7562 24.9855C11.1551 24.975 10.6559 24.4265 10.2375 24.0047C9.97031 23.7375 9.73828 23.4492 9.35156 23.3754C8.72226 23.2558 7.81523 23.3121 7.31601 23.755C6.33164 24.6304 6.22968 25.9945 6.22265 27.2179Z" fill="#ED6C30"/>
<path d="M12.9199 23.8254C12.9129 25.0418 13.5562 25.8293 14.0801 26.8594C14.6672 28.0125 15.3352 28.8914 16.5621 29.4574C17.2547 29.7773 18.1898 29.8582 18.9281 29.6402C20.0672 29.2992 20.6578 28.4027 21.0551 27.327C21.3855 26.434 21.3961 25.0981 21.0269 24.2051C20.7773 23.6004 20.3977 22.9781 19.9793 22.4859C19.5609 21.9902 19.0441 21.5578 18.5484 21.15C18.2883 20.9391 18.0809 20.7563 17.7715 20.6121C17.4656 20.468 17.1141 20.4926 16.8047 20.3695C16.5375 20.2641 16.3512 20.0356 16.0559 19.9793C15.4266 19.8598 14.5195 19.916 14.0203 20.359C13.0289 21.2379 12.9305 22.5984 12.9199 23.8254Z" fill="#ED6C30"/>
<path d="M31.173 17.4973C31.0219 17.3566 30.8812 17.2336 30.7898 17.1316C29.9179 16.1367 29.0953 15.3211 27.9562 14.618C26.9472 13.9922 25.9734 14.6109 25.091 15.1418C24.4933 15.4969 23.6355 16.0383 22.957 16.6676C22.9043 16.6465 22.8515 16.6254 22.7883 16.6113C22.6336 16.5762 22.173 16.1824 22.0711 16.1156C21.5965 15.7851 21.0972 15.5004 20.5699 15.2683C19.589 14.843 18.9844 14.6953 18.0246 15.2402C17.0367 15.8027 16.3054 16.7871 15.5601 17.6238C15.3492 17.8629 15.1629 18.1441 15.0715 18.457C14.9695 18.7945 14.8746 19.241 14.4351 19.1004C14.0449 18.9773 13.834 18.6574 13.5211 18.4219C13.0816 18.0949 12.4875 17.8805 11.939 17.8488C10.9406 17.789 10.5715 17.0894 9.73826 16.7484C8.95779 16.425 8.20545 16.3863 7.36873 16.4496C5.97303 16.5586 4.64764 17.7469 4.6406 19.1953C4.63709 20.0074 4.61951 20.8336 4.96756 21.5894C5.1117 21.9058 5.23123 21.9832 5.26287 22.3347C5.28748 22.616 5.37889 22.8586 5.42459 23.1363C5.49842 23.5793 5.54061 24.1418 5.39646 24.5742C5.25584 24.9961 5.21014 25.3758 5.11521 25.8187C5.04842 26.1527 5.01678 26.3355 5.0906 26.6906C5.17146 27.0949 5.26639 27.4887 5.37537 27.8859C5.53357 28.4484 5.72693 28.9969 5.91678 29.5488C6.08201 30.0305 6.19451 30.2801 6.51795 30.6808C6.98201 31.2504 7.54451 31.732 7.92068 32.3613C8.25467 32.9273 8.891 33.307 9.55896 33.3211C9.91756 33.3281 10.6312 33.3387 10.7226 32.8746C10.8035 32.4703 10.2551 32.4 10.0054 32.2312C9.1406 31.6371 8.38826 31.166 7.8574 30.2273C7.38982 29.4012 7.15779 28.4695 6.94686 27.5519C6.77107 26.789 6.74998 25.9769 6.99256 25.2246C7.24217 24.4512 7.8785 24.0644 8.6906 24.0117C9.2285 23.9765 9.97732 24.9539 10.4836 25.2316C11.3695 25.7133 12.2414 24.9539 13.1625 25.6851C13.9605 26.318 13.7672 27.6082 14.2066 28.4414C14.7445 29.4539 16.2808 28.5574 15.7429 27.5414C15.4652 27.0211 15.4933 26.3074 15.2508 25.7484C14.9554 25.0699 14.5687 24.5566 14.0203 24.1558C14.0168 24.1137 14.0238 24.075 14.0133 24.0293C13.7074 22.9148 13.9394 21.0058 15.3879 20.8898C16.1262 20.8301 16.5023 20.9777 17.0859 21.4348C17.5957 21.832 18.2426 21.9445 18.6785 22.4402C18.7453 22.514 18.8156 22.5703 18.8894 22.616C18.9633 22.8656 19.0722 23.1293 19.2164 23.4105C19.4414 23.8535 19.5855 24.3527 19.8457 24.7781C19.9336 24.9223 20.0707 25.0277 20.1586 25.1719C20.2816 25.3793 20.3097 25.6289 20.4328 25.8398C20.5418 26.0262 20.6402 26.3461 20.8722 26.3601C21.0586 26.3742 21.3222 26.2687 21.4945 26.1914C21.6984 26.1 21.9375 26.0367 22.1168 25.9137C22.6933 25.5129 21.0762 22.9535 20.8512 22.4543C20.6191 21.9375 20.7984 21.9305 21.2484 21.614C21.8918 21.157 22.7461 20.4398 23.5898 20.4961C24.075 20.5312 24.4793 20.8019 24.7746 21.1605C25.0453 21.4805 25.4004 22.2996 25.9137 21.8637C26.1281 21.6808 26.3039 21.4453 26.4972 21.2449C26.5746 21.1676 26.6449 21.0762 26.6906 20.9777C27.0457 20.2394 26.0719 19.6031 25.5621 19.2691C25.2808 19.0863 25.0523 18.8472 24.7359 18.7066C24.5918 18.6433 24.0012 18.6117 23.9238 18.5203C23.618 18.1582 25.1859 17.2371 25.3898 17.093C25.8926 16.7344 26.7961 15.859 27.4254 16.323C28.6699 17.2371 29.4961 18.45 30.607 19.4765C30.9269 19.7719 31.4578 19.3887 31.7355 19.1847C32.4422 18.6609 31.7215 17.9894 31.173 17.4973ZM12.6703 23.9519C12.0445 23.9273 11.4117 23.9097 11.0988 23.6039C10.3043 22.8305 9.74178 22.514 8.60975 22.3945C8.07889 22.3383 7.56209 22.4543 7.08396 22.6582C6.96443 22.2961 6.79217 21.948 6.60584 21.5824C6.26482 20.918 6.1031 20.2324 6.08904 19.4906C6.05389 17.7469 7.5867 17.6906 8.77498 17.9578C9.73826 18.1723 10.1039 19.3359 11.2219 19.4062C11.8933 19.4519 12.716 19.4133 13.1765 20.0496C13.2574 20.1656 13.2996 20.2816 13.3312 20.4012C12.6527 21.4066 12.4594 22.7285 12.6703 23.9519ZM19.8808 20.6262C19.7929 20.7035 19.7226 20.7808 19.6453 20.8582C18.8965 20.2851 17.9683 19.8422 17.223 19.3324C17.0402 19.2094 16.7273 19.1812 16.6605 18.9527C16.6008 18.7558 16.766 18.4992 16.8469 18.3234C17.0437 17.8769 17.5429 17.4445 17.8875 17.107C18.3551 16.6535 18.8965 15.7183 19.6558 16.1648C20.3871 16.5972 21.0867 17.0683 21.8109 17.5113C22.1308 17.7047 22.6617 18.0492 22.7039 18.4324C22.7355 18.7242 22.9113 18.8262 22.5949 18.9422C21.614 19.3008 20.6683 19.9406 19.8808 20.6262Z" fill="#FCC21B"/>
<path d="M30.0164 17.4726C29.8231 17.5148 29.6367 17.5535 29.4539 17.5886C29.141 17.6519 28.8773 17.7679 28.5785 17.8734C27.907 18.116 27.3797 18.3586 26.8699 18.8718C26.4973 19.2515 26.2863 19.6839 25.9945 20.1129C25.8398 20.3414 25.7836 20.6015 25.6887 20.8547C25.5797 21.1359 25.4215 21.3574 25.3371 21.6527C25.2106 22.0957 25.1191 22.5211 25.084 22.9851C25.0418 23.4949 25.2246 23.966 25.309 24.4687C25.3477 24.7113 25.4145 24.9152 25.5164 25.1367C25.6395 25.4074 25.6395 25.6957 25.752 25.9664C25.9594 26.455 26.3109 26.8804 26.652 27.2777C27.0035 27.689 27.4078 28.03 27.8262 28.3675C28.5047 28.916 29.3063 29.0847 30.157 29.2148C31.0254 29.3519 31.8691 29.1761 32.741 29.155C33.4371 29.1375 34.084 29.0179 34.752 28.8246C35.2195 28.691 35.7398 28.5504 36.1336 28.2656C36.6152 27.9175 36.8297 27.4324 37.1109 26.9226C37.3887 26.4129 37.5047 25.8293 37.6699 25.2773C37.8176 24.7605 37.9266 24.2261 37.9195 23.6847C37.8949 22.2714 37.8387 20.7386 36.8508 19.6242C35.7293 18.3586 33.7043 17.3988 32.0309 17.2441C31.391 17.1879 30.6809 17.332 30.0164 17.4726Z" fill="#855C52"/>
<path d="M29.3836 24.8273V24.8062C29.4117 24.4477 29.373 24.075 29.4925 23.7305C29.6086 23.407 29.7597 23.0941 29.816 22.7496C29.8757 22.4016 29.6121 22.0676 29.3589 21.8637C29.0179 21.5859 28.5644 21.484 28.2339 21.1922C28.0582 21.0375 27.8332 20.8934 28.0511 20.6859C28.3113 20.4363 28.8562 20.5172 29.1902 20.5488C29.4925 20.577 29.8265 20.6402 30.1183 20.7176C30.2871 20.7633 30.4523 20.8793 30.6351 20.8336C30.8882 20.7633 31.0746 20.4609 31.2433 20.2746C31.4437 20.0531 31.6546 19.8422 31.9007 19.6699C32.1257 19.5117 32.7023 19.0863 33.0117 19.2199C33.4898 19.4273 32.8359 20.2359 32.7445 20.5453C32.6461 20.8758 32.2418 21.5016 32.5793 21.7898C32.7375 21.9234 32.9097 22.043 33.0961 22.1344C33.2437 22.2082 33.3738 22.2434 33.4968 22.3523C33.7851 22.6055 34.1191 22.7988 34.3793 23.0836C34.5375 23.2594 35.1527 23.6988 34.9347 23.9766C34.7132 24.2578 33.9117 23.8746 33.648 23.7762C33.1207 23.5863 32.5687 23.1293 31.9746 23.2699C31.6933 23.3367 31.4718 23.5406 31.3347 23.7937C31.2046 24.0434 31.1168 24.2156 30.9339 24.4406C30.8004 24.6059 30.6879 24.7887 30.5824 24.9715C30.4488 25.1859 30.382 25.432 30.2625 25.6465C30.1535 25.8434 29.8617 26.1457 29.605 25.9523C29.4011 25.7977 29.3695 25.0734 29.3836 24.8273Z" fill="white"/>
<path d="M32.4106 29.925C31.1098 29.925 29.6754 29.591 27.907 28.8703C27.668 28.7719 27.4395 28.6418 27.2039 28.4695C26.9578 28.2867 26.7434 28.0898 26.5324 27.893L26.3742 27.7488C25.6887 27.1265 25.1965 26.5043 24.9117 25.8996C24.641 25.3301 24.4617 24.8168 24.3844 24.3668C24.2578 23.6531 24.409 22.7883 24.5145 22.159C24.6481 21.3855 24.8977 20.6508 25.2527 19.9652C25.5199 19.4484 25.8223 18.907 26.2758 18.45C26.8734 17.8488 27.6363 17.5113 28.3078 17.2125C29.0953 16.8644 29.9707 16.6254 30.8391 16.5094C33.3879 16.1754 36.2285 17.6273 37.6067 19.9371C37.8633 20.3625 38.1199 20.823 38.2676 21.3433C38.5172 22.2363 38.7422 23.0273 38.5734 24.0574C38.4399 24.873 38.2676 25.4883 38.0109 26.0508L37.9406 26.216C37.7649 26.6027 37.5504 27.0844 37.2867 27.443C36.0527 29.0883 34.4109 29.925 32.4106 29.925ZM31.6125 17.8875C31.4191 17.8875 31.2188 17.898 31.0254 17.9262C30.3012 18.0211 29.5418 18.2285 28.9477 18.4887C28.2727 18.7875 27.6961 19.0406 27.2883 19.4519C26.9789 19.7719 26.7469 20.1867 26.5184 20.6226C26.2266 21.1746 26.0297 21.7687 25.9207 22.391C25.8293 22.9254 25.7063 23.6461 25.7871 24.1172C25.8434 24.4371 25.9805 24.8273 26.1984 25.2773C26.4024 25.7062 26.7961 26.1914 27.334 26.6801L27.5027 26.8348C27.682 27 27.8578 27.1652 28.0512 27.3058C28.1918 27.4078 28.3219 27.4851 28.452 27.5379C30.0199 28.1777 31.3172 28.4871 32.4141 28.4871C33.9609 28.4871 35.1774 27.8648 36.1406 26.5781C36.3094 26.3496 36.4887 25.9488 36.6293 25.6289L36.7067 25.4601C36.907 25.0172 37.0477 24.5074 37.1602 23.8183C37.2762 23.1047 37.1215 22.5492 36.907 21.7828C36.7945 21.3715 36.5906 21.0199 36.3797 20.6648C35.3848 19.0055 33.4688 17.8875 31.6125 17.8875Z" fill="#FCC21B"/>
<path d="M12.0867 32.6566C12.1078 30.9445 12.8531 28.7754 14.4175 27.8648C14.8324 27.6223 15.2121 27.3762 15.6691 27.2215C16.4003 26.9719 17.1878 26.9754 17.9332 26.7891C18.6152 26.6168 19.016 26.2793 19.5433 25.8363C19.9089 25.5305 20.3378 25.2633 20.7527 25.0312C21.4347 24.6551 22.2503 24.4863 23.0273 24.4863C24.1804 24.4863 25.446 24.7359 26.3988 25.4145C26.8347 25.7238 27.1968 26.1809 27.4957 26.6062C27.791 27.0387 27.7523 27.5836 27.7875 28.0828C27.8472 28.8492 27.7769 29.584 27.5835 30.3187C27.3796 31.0922 27.239 31.8797 27.007 32.6426C26.8699 33.0961 26.7363 33.5742 26.4796 33.9785C26.23 34.3723 25.8855 34.2949 25.4496 34.3793C25.098 34.4461 24.7464 34.5094 24.3949 34.5621C23.7199 34.6641 23.0414 34.6254 22.3593 34.6254C21.6878 34.6289 21.0445 34.5375 20.3765 34.4672C19.7683 34.4039 19.132 34.5129 18.5167 34.4707C17.6906 34.418 16.78 34.3547 15.996 34.0875C15.5179 33.9293 15.0609 33.7746 14.5757 33.6691C14.2242 33.5918 13.6511 33.5391 13.3839 33.2824C12.9515 33.075 12.5261 32.843 12.0867 32.6566Z" fill="#757F3F"/>
<path d="M23.6531 37.5855C23.4492 37.5855 23.2488 37.582 23.0484 37.575C22.7496 37.5679 22.4648 37.5468 22.1801 37.5293C21.1851 37.4589 20.1516 37.5117 19.0266 37.3886C16.8152 37.1461 14.5055 36.8086 12.7336 35.5675C12.1922 35.1914 11.6508 34.7589 11.4504 34.0031C11.3344 33.5777 11.2851 33.1171 11.3027 32.6285C11.3273 31.9043 11.4891 31.1379 11.8125 30.2132C12.143 29.264 12.8039 27.9808 14.066 27.2461L14.2629 27.13C14.6215 26.9191 14.9941 26.6976 15.4476 26.5429C15.9293 26.3777 16.4004 26.3144 16.8609 26.2511C17.1773 26.2054 17.4797 26.1632 17.7609 26.0929C18.2812 25.9629 18.5801 25.7132 19.0723 25.3019C19.4449 24.989 19.8773 24.7007 20.4082 24.4054C21.157 23.9906 22.0676 23.7691 23.0309 23.7691C24.5109 23.7691 25.8539 24.1453 26.8172 24.8273C27.3797 25.2246 27.8121 25.8011 28.0863 26.1984C28.4449 26.7152 28.4695 27.2918 28.4941 27.7558C28.4976 27.8472 28.5012 27.9351 28.5082 28.0265C28.5715 28.8632 28.5012 29.6754 28.2832 30.498C28.1953 30.8039 28.125 31.1132 28.0547 31.4191C27.9457 31.8867 27.8367 32.3718 27.6926 32.85C27.5941 33.1734 27.5414 33.5179 27.4851 33.88C27.3973 34.4425 27.3058 35.0297 27.0351 35.6343L26.9332 35.8699C26.7223 36.3761 26.4797 36.9457 25.643 37.2761C24.9504 37.5468 24.2156 37.5855 23.6531 37.5855ZM23.0273 25.2C22.3137 25.2 21.6316 25.3617 21.0973 25.657C20.6437 25.9066 20.2851 26.1457 20.0004 26.3847C19.4238 26.8664 18.9422 27.2707 18.109 27.4816C17.7504 27.5695 17.3953 27.6222 17.0508 27.6679C16.643 27.7242 16.2527 27.7769 15.9012 27.8964C15.5883 28.0019 15.3105 28.1707 14.9871 28.364L14.7797 28.4836C13.8937 29.0004 13.4086 29.9672 13.159 30.6879C12.8848 31.4718 12.7476 32.1047 12.7301 32.6812C12.716 33.0257 12.7512 33.3492 12.832 33.6375C12.9058 33.9257 13.2047 34.1543 13.5527 34.3968C15.0504 35.4445 17.1562 35.7468 19.1812 35.9683C20.2641 36.0843 21.2906 36.0351 22.2785 36.1019C22.7371 36.1353 23.1968 36.1529 23.6566 36.1546C24.1207 36.1546 24.6586 36.13 25.1191 35.9507C25.3863 35.8453 25.4355 35.7504 25.6148 35.3214C25.6465 35.2371 25.6887 35.1457 25.7273 35.0543C25.9207 34.6254 25.991 34.1578 26.0719 33.6656C26.1316 33.2683 26.1949 32.8605 26.325 32.4386C26.4551 32.0062 26.557 31.5668 26.6625 31.1062C26.7363 30.7828 26.8101 30.4629 26.8945 30.1394C27.0703 29.4714 27.1301 28.8175 27.0773 28.139C27.0703 28.0371 27.0633 27.9316 27.0598 27.8261C27.0457 27.4886 27.0316 27.1933 26.9086 27.014C26.6941 26.7082 26.3672 26.2652 25.991 25.9945C25.2633 25.4812 24.2121 25.2 23.0273 25.2Z" fill="#FCC21B"/>
<path d="M17.1598 34.8925C17.1035 34.6008 17.3285 34.2879 17.427 34.0207C17.5887 33.5812 17.7574 33.1383 17.9824 32.7269C18.3692 32.0168 18.7031 31.3347 19.234 30.716C19.7016 30.1746 20.6508 28.9511 21.5192 29.1902C21.5297 29.3554 21.6352 29.5629 21.6317 29.714C21.6211 29.9566 21.4594 30.2168 21.3539 30.4312C21.0902 30.9902 20.6754 31.5105 20.3731 32.0554C20.032 32.6742 19.7613 33.3351 19.4766 33.9785C19.2375 34.5199 18.9457 34.9312 18.9422 35.5324V35.5183" fill="#FCC21B"/>
<path d="M22.0218 34.8609C22.0781 34.7308 22.1343 34.5972 22.1801 34.4671C22.4226 33.7781 22.5668 33.075 22.8867 32.407C23.4879 31.1343 24.4371 29.9953 25.7379 29.4082C26.1703 29.2148 26.6449 29.0636 27.0984 28.916C27.5343 28.7753 28.0968 28.6664 28.4273 28.3359C29.0179 27.7417 29.482 27.239 30.3258 27.021C31.4297 26.7398 32.9765 26.7363 34.0593 27.13C34.6394 27.341 35.1457 27.7066 35.6097 28.1109C36.0422 28.4906 36.3691 29.0144 36.6926 29.4996C37.1215 30.1429 37.2093 30.9234 37.1918 31.6757C37.1812 32.3683 37.3394 33.2578 36.8297 33.8273C36.6609 34.0101 36.3902 34.1015 36.1828 34.2457C35.8769 34.4566 35.6097 34.6957 35.2898 34.896C34.2703 35.5324 32.9484 35.782 31.8129 36.1476C29.1304 37.0054 26.2617 37.0335 23.4773 37.0406C22.9922 37.0441 21.8672 37.0617 21.7125 36.5062C21.5472 35.8945 21.7968 35.3812 22.0218 34.8609Z" fill="#757F3F"/>
<path d="M25.9102 36.4992C25.9453 35.8664 26.4023 35.1984 26.6309 34.6254C26.8629 34.0453 27.1371 33.3914 27.4781 32.8711C27.8613 32.291 28.4309 31.848 28.9547 31.4086C29.2781 31.1343 29.6262 30.7793 30.1113 30.8707C30.6211 30.9691 30.6598 31.4261 30.4699 31.8551C30.3012 32.2383 29.9988 32.639 29.7773 32.9941C29.4469 33.525 29.1973 34.0488 28.9617 34.6148C28.698 35.2441 28.1637 35.7785 28.234 36.5203V36.4992" fill="#FCC21B"/>
<path d="M23.3332 37.7507C22.7285 37.7507 21.3117 37.7507 21.0199 36.689C20.7984 35.8769 21.0938 35.2054 21.3258 34.664L21.368 34.5761C21.4172 34.4601 21.4629 34.3476 21.5051 34.2281C21.5895 33.9925 21.6598 33.7535 21.7301 33.5179C21.8672 33.0539 22.0113 32.5757 22.2363 32.0976C22.7602 30.9937 23.7445 29.5207 25.4426 28.7543C25.8961 28.5504 26.3672 28.3992 26.8207 28.2515C26.9613 28.2058 27.0563 28.1777 27.1547 28.1496C27.4324 28.0687 27.784 27.9668 27.9176 27.8297L28.0231 27.7207C28.6066 27.1336 29.1621 26.5781 30.143 26.3285C30.7125 26.1843 31.3664 26.107 32.0379 26.107C32.625 26.107 33.4969 26.1668 34.2984 26.4586C34.882 26.6695 35.4481 27.0246 36.0738 27.573C36.5309 27.9703 36.8684 28.4836 37.1707 28.9336L37.2797 29.0988C37.8633 29.9671 37.916 30.9902 37.902 31.6863C37.902 31.8164 37.9055 31.95 37.909 32.0871C37.9301 32.7761 37.9547 33.6375 37.357 34.3019C37.1672 34.5129 36.9422 34.6289 36.7629 34.7238C36.7031 34.7554 36.6399 34.7871 36.5871 34.8257C36.4711 34.9066 36.3586 34.991 36.2496 35.0754C36.0598 35.2195 35.8699 35.3636 35.6625 35.4937C34.8223 36.0175 33.852 36.2918 32.9133 36.5589C32.6074 36.6433 32.3121 36.7277 32.0238 36.8191C29.1727 37.7332 26.1457 37.7402 23.4738 37.7472H23.3332V37.7507ZM22.384 36.2214C22.4859 36.2636 22.7356 36.3234 23.3367 36.3234H23.4352C26.0473 36.3164 28.9582 36.3093 31.5984 35.4656C31.9008 35.3707 32.2137 35.2828 32.5301 35.1914C33.3774 34.9523 34.2457 34.7062 34.9137 34.2914C35.0824 34.1859 35.2336 34.0699 35.3883 33.9539C35.5149 33.8554 35.6449 33.757 35.782 33.6621C35.8805 33.5918 35.9895 33.532 36.102 33.4757C36.1723 33.4371 36.2777 33.3808 36.3059 33.3527C36.5238 33.1136 36.5063 32.6179 36.4922 32.1433C36.4887 31.9816 36.4852 31.8234 36.4852 31.6722C36.4992 30.8636 36.3832 30.3187 36.1055 29.9074L35.993 29.7351C35.7293 29.3414 35.4586 28.9336 35.1457 28.6593C34.657 28.2304 34.2352 27.9597 33.8238 27.8121C32.9695 27.5027 31.5141 27.4675 30.5121 27.7242C29.9109 27.8754 29.5699 28.2199 29.0566 28.7402L28.9441 28.8492C28.5469 29.2464 28.0055 29.4082 27.5695 29.5347L27.3305 29.6086C26.8559 29.7632 26.4234 29.9004 26.0473 30.0726C24.743 30.6597 23.9625 31.8375 23.5441 32.7269C23.3613 33.1066 23.2383 33.5144 23.1117 33.9433C23.0344 34.2 22.957 34.4566 22.8691 34.7132C22.8164 34.8644 22.7531 35.0121 22.6934 35.1562L22.6547 35.2476C22.4543 35.6554 22.3418 35.9402 22.384 36.2214Z" fill="#FCC21B"/>
</g>
</svg>
