<svg width="45" height="45" viewBox="0 0 45 45" fill="none" xmlns="http://www.w3.org/2000/svg">
<path d="M8.43751 8.43751C14.9977 5.15813 20.3906 9.14063 22.5 11.9531C24.6094 9.14063 30.0024 5.15813 36.5625 8.43751C45 12.6563 42.8906 23.2031 36.5625 29.5313C33.4744 32.6194 28.0364 38.0574 24.0595 41.0822C23.6153 41.4197 23.0703 41.5975 22.5125 41.5871C21.9547 41.5766 21.4168 41.3784 20.9855 41.0245C17.3391 38.0813 11.482 32.5758 8.43751 29.5313C2.10939 23.2031 1.45435e-05 12.6563 8.43751 8.43751Z" fill="#F8312F"/>
<path d="M22.5 11.9531V16.2422C24.286 12.4664 28.7227 7.42501 36.0816 8.20829C29.7394 5.35361 24.5574 9.20954 22.5 11.9531ZM16.7991 7.78642C14.4281 6.96095 11.5664 6.87236 8.43751 8.43751C1.45435e-05 12.6563 2.10939 23.2031 8.43751 29.5313C11.482 32.5758 17.3391 38.0813 20.9855 41.0245C21.4169 41.3782 21.955 41.5761 22.5128 41.5863C23.0705 41.5966 23.6155 41.4184 24.0595 41.0808C24.4167 40.8089 24.7847 40.5192 25.1635 40.2117C21.15 37.1981 15.5166 32.4506 12.458 29.7183C5.4872 23.4872 3.16267 13.1035 12.458 8.94939C13.8308 8.32438 15.2977 7.93139 16.7991 7.78642Z" fill="#CA0B4A"/>
<path d="M29.6529 23.5329C31.5604 24.6342 34.6118 22.9201 36.4684 19.7044C38.3249 16.4887 38.2837 12.9891 36.3762 11.8878C34.4687 10.7865 31.4173 12.5006 29.5607 15.7163C27.7041 18.932 27.7454 22.4316 29.6529 23.5329Z" fill="#F37366"/>
</svg>
