<svg width="45" height="45" viewBox="0 0 45 45" fill="none" xmlns="http://www.w3.org/2000/svg">
<path d="M25.6921 9.84375L24.2156 12.7266L27.1687 14.2734L28.6453 11.3203L25.6921 9.84375Z" fill="#FCB100"/>
<path d="M27.457 11.828C26.8242 11.4877 26.3067 10.9842 25.9594 10.3739L25.4672 8.56969L24.9047 6.69657C24.9075 6.04125 25.1817 5.41266 25.6669 4.9486C26.1506 4.48453 26.8059 4.22297 27.4922 4.21875H29.1797C29.8656 4.21771 30.5257 4.48054 31.0233 4.95282C31.2651 5.18625 31.4564 5.46188 31.5858 5.76703C31.7151 6.07219 31.7826 6.39563 31.7812 6.72328V7.73438C31.9992 8.13938 32.1637 8.35875 32.2776 8.51203C32.407 8.6836 32.4703 8.76938 32.4703 8.93391C32.4491 9.09621 32.3672 9.24445 32.2411 9.34875C32.1122 9.45627 31.9491 9.51413 31.7812 9.51188H31.7756C31.7404 11.1164 31.4803 12.3005 29.5312 12.3005C28.8099 12.3327 28.0932 12.1694 27.457 11.828Z" fill="#FFC83D"/>
<path d="M19.5384 13.9078C19.3604 13.8329 19.1657 13.807 18.9743 13.8327C18.7829 13.8584 18.6019 13.9349 18.45 14.0541L15.0426 16.7091C15.0145 17.1478 14.8767 17.6991 14.3719 17.7328H13.6406C13.6406 17.7328 13.4015 18.2391 12.9375 18.0844C12.5145 17.9061 12.139 17.6316 11.8406 17.2828C11.4469 16.8188 11.1094 16.0594 11.264 15.6797C11.5217 15.2918 11.8569 14.9614 12.2484 14.7094L13.2328 13.9781L16.4531 11.5102C17.0568 11.0383 17.7749 10.735 18.534 10.6312C19.2932 10.5274 20.0663 10.6269 20.7745 10.9195L25.387 12.7406L24.9792 13.7686L25.5867 13.3074C26.8773 15.0014 28.7671 16.1375 30.8686 16.4827C32.9701 16.8279 35.1241 16.3559 36.8887 15.1636C36.9703 14.7642 37.17 14.2355 37.6453 14.0063C37.7576 13.9288 37.8947 13.8959 38.0299 13.9141C38.1652 13.9323 38.2887 14.0003 38.3765 14.1047C38.3765 14.1047 38.6437 13.5984 39.1078 13.7953C39.5268 14.0105 39.8953 14.3114 40.1906 14.6813C40.3572 14.9254 40.4654 15.2045 40.5069 15.4971C40.5483 15.7898 40.5219 16.088 40.4297 16.3688C40.2259 16.7362 39.9424 17.0534 39.6 17.2969L39.0319 17.6091C36.5892 19.3877 33.5478 20.1406 30.5575 19.7067C27.5673 19.2729 24.8652 17.6868 23.0287 15.2874L19.5553 13.9149L19.5384 13.9078ZM19.8 21.8953L20.4328 21.4875C20.3372 21.6675 20.2565 21.8522 20.1909 22.0416L26.1914 27.1041L29.9433 27.0689L30.8672 27.8564C31.5333 28.8265 32.0324 29.9012 32.3437 31.0359L35.2969 38.9391L33.314 40.2469L28.3078 31.4719L23.0203 27.4275L20.1937 31.403C19.8741 31.8493 19.4308 32.1923 18.9185 32.3897C18.4063 32.5871 17.8474 32.6303 17.3109 32.5139L8.59216 30.5592L9.44998 28.1264L17.114 28.8014L19.9884 23.1483C20.0011 22.7728 20.0686 22.4002 20.1909 22.043L19.8 21.8953Z" fill="#FFC83D"/>
<path d="M6.52076 33.6263L9.84373 30.6534L9.7242 28.0364L8.11544 27.4627C7.94422 27.401 7.75556 27.4095 7.59063 27.4865C7.4257 27.5634 7.2979 27.7025 7.23513 27.8733C7.23513 27.8733 5.69951 32.085 5.45904 32.978C5.36482 33.2803 6.2381 33.8766 6.52076 33.6248M39.375 38.1797H34.889L33.3281 40.3031L34.0875 41.7094C34.1289 41.7898 34.186 41.8611 34.2555 41.9191C34.325 41.977 34.4054 42.0204 34.492 42.0466C34.5785 42.0728 34.6695 42.0814 34.7595 42.0718C34.8494 42.0622 34.9365 42.0346 35.0156 41.9906C35.0156 41.9906 38.9531 39.8813 39.7406 39.375C39.9937 39.2063 39.7406 38.1797 39.375 38.1797Z" fill="#533566"/>
<path d="M24.4125 25.6078L20.8968 30.4453L17.7468 28.4484C17.3791 28.209 17.1191 27.8357 17.022 27.4078C16.9248 26.9799 16.9982 26.531 17.2265 26.1562L19.9406 21.6703L24.4125 25.6078Z" fill="#636363"/>
<path d="M29.9432 27.0422L26.4234 30.5156C26.2414 30.6959 26.0224 30.8346 25.7816 30.9221C25.5408 31.0096 25.2839 31.0438 25.0286 31.0225C24.7732 31.0011 24.5256 30.9246 24.3027 30.7982C24.0798 30.6719 23.887 30.4987 23.7375 30.2906L20.5172 25.8047C20.5172 25.8047 19.1109 23.7797 19.6031 22.514C19.7212 22.0008 19.9518 21.5198 20.2781 21.1078L27.0843 24.5953" fill="#9B9B9B"/>
<path opacity="0.51" d="M38.2598 14.1216C38.2444 14.1389 38.2326 14.1591 38.2251 14.181C38.2175 14.2029 38.2143 14.2261 38.2158 14.2492C38.2172 14.2724 38.2232 14.295 38.2334 14.3158C38.2437 14.3366 38.2579 14.3552 38.2753 14.3705C38.5566 14.618 38.7956 14.9002 38.9925 15.217C39.0251 15.2914 39.032 15.3745 39.0122 15.4533C38.9931 15.5149 38.9552 15.569 38.9039 15.608C38.8581 15.6441 38.8039 15.6683 38.7464 15.6783C38.7325 15.6809 38.7183 15.6813 38.7042 15.6797C38.5674 15.5472 38.4374 15.4078 38.3147 15.262C38.2908 15.2194 38.2625 15.1793 38.2303 15.1425C38.0883 14.9878 37.9716 15.0469 37.9195 15.1102C37.8935 15.1412 37.8791 15.1803 37.8786 15.2207C37.878 15.2612 37.8915 15.3007 37.9167 15.3323L38.0208 15.4589L38.0334 15.487C38.0869 15.6108 38.1459 15.8555 38.1178 16.3097C38.1152 16.3563 38.1312 16.4021 38.1623 16.4369C38.1934 16.4717 38.2371 16.4927 38.2837 16.4953C38.3304 16.4979 38.3761 16.4819 38.4109 16.4508C38.4457 16.4197 38.4668 16.376 38.4694 16.3294C38.4769 16.1869 38.4783 16.0589 38.4736 15.9455C38.5706 16.0355 38.7042 16.0411 38.8012 16.0256C38.9269 16.004 39.0443 15.9486 39.1409 15.8654C39.2375 15.7821 39.3097 15.6742 39.3497 15.5531C39.397 15.3841 39.3795 15.2036 39.3005 15.0469C39.0839 14.6963 38.8172 14.3793 38.5087 14.1061C38.4914 14.0907 38.4712 14.0789 38.4493 14.0713C38.4274 14.0638 38.4042 14.0606 38.3811 14.062C38.3579 14.0635 38.3353 14.0695 38.3145 14.0797C38.2937 14.0899 38.2751 14.1041 38.2598 14.1216Z" fill="#ED9200"/>
<path d="M27.0844 24.6375L19.8 21.8953C20.4651 20.6902 21.9375 17.8411 22.5 16.0791C22.5562 13.0106 24.2859 12.2344 24.2859 12.2344C24.84 12.0331 25.4374 11.9817 26.0177 12.0854C26.598 12.1891 27.1406 12.4443 27.5906 12.825C28.1931 13.2964 28.6215 13.9549 28.8084 14.6967L28.814 14.6953C29.2431 16.3808 29.3108 18.138 29.0127 19.8514C28.7146 21.5649 28.0574 23.196 27.0844 24.6375Z" fill="#00A6ED"/>
<path d="M30.15 9.83111C30.1058 9.84587 30.0693 9.87756 30.0485 9.91922C30.0276 9.96088 30.0242 10.0091 30.0389 10.0533C30.1177 10.2907 30.287 10.4874 30.5101 10.6006C30.7331 10.7138 30.9918 10.7345 31.23 10.658C31.2728 10.6426 31.308 10.6112 31.3282 10.5703C31.3483 10.5295 31.3519 10.4825 31.338 10.4391C31.3242 10.3957 31.294 10.3594 31.2539 10.3378C31.2138 10.3162 31.1669 10.311 31.1231 10.3233C30.9732 10.3718 30.8101 10.3591 30.6695 10.288C30.5289 10.2169 30.422 10.0931 30.3722 9.94361C30.365 9.92161 30.3536 9.90124 30.3385 9.88367C30.3235 9.8661 30.3051 9.85167 30.2844 9.84122C30.2638 9.83077 30.2413 9.8245 30.2182 9.82276C30.1951 9.82103 30.172 9.82386 30.15 9.83111Z" fill="#990839"/>
<path d="M31.1203 8.31097C31.1462 8.30918 31.1715 8.30231 31.1947 8.29073C31.2179 8.27915 31.2386 8.2631 31.2556 8.2435C31.2725 8.22389 31.2855 8.20113 31.2937 8.17651C31.3018 8.15189 31.305 8.1259 31.3031 8.10003C31.2995 7.99844 31.2759 7.89856 31.2336 7.8061C31.1914 7.71365 31.1313 7.63043 31.0568 7.56121C30.9824 7.49199 30.895 7.43812 30.7998 7.40269C30.7045 7.36726 30.6031 7.35096 30.5016 7.35472C30.4 7.35096 30.2986 7.36726 30.2034 7.40269C30.1081 7.43812 30.0207 7.49199 29.9463 7.56121C29.8718 7.63043 29.8118 7.71365 29.7695 7.8061C29.7272 7.89856 29.7036 7.99844 29.7 8.10003C29.6981 8.1259 29.7013 8.15189 29.7095 8.17651C29.7176 8.20113 29.7306 8.22389 29.7476 8.2435C29.7645 8.2631 29.7852 8.27915 29.8085 8.29073C29.8317 8.30231 29.8569 8.30918 29.8828 8.31097H31.1203Z" fill="white"/>
<path d="M30.3173 8.31097C30.3019 8.24788 30.2939 8.18323 30.2934 8.11831C30.2934 7.76112 30.5212 7.47144 30.8025 7.47144C31.0837 7.47144 31.3115 7.76112 31.3115 8.11831C31.3115 8.18318 31.3039 8.24783 31.289 8.31097H30.3173Z" fill="#7D4533"/>
<path d="M30.5704 8.31094C30.5521 8.25511 30.5426 8.19675 30.5423 8.13798C30.5423 7.91298 30.6689 7.73016 30.825 7.73016C30.981 7.73016 31.1076 7.91298 31.1076 8.13798C31.1078 8.19667 31.0988 8.25504 31.0809 8.31094H30.5704Z" fill="#1C1C1C"/>
<path d="M31.064 7.97346C31.0092 7.97346 30.9656 7.91721 30.9656 7.8469C30.9656 7.77659 31.0092 7.72034 31.064 7.72034C31.1189 7.72034 31.1625 7.77659 31.1625 7.8469C31.1625 7.91721 31.1189 7.97346 31.064 7.97346Z" fill="white"/>
<path d="M24.8386 15.8301C25.379 15.9749 25.9548 15.899 26.4392 15.6191C26.9237 15.3393 27.2771 14.8785 27.4219 14.3381C27.5666 13.7977 27.4907 13.2219 27.2109 12.7375C26.931 12.253 26.4702 11.8995 25.9298 11.7548L21.1767 10.4808L20.084 14.5561L24.8386 15.8301Z" fill="#0092E7"/>
<path d="M31.0556 6.33937C30.6271 6.29526 30.1958 6.38991 29.8251 6.60937L29.7197 6.67968L29.7112 6.68671L29.7084 6.68953C29.6465 6.74516 29.6082 6.82235 29.6013 6.90531C29.5945 6.98826 29.6196 7.0707 29.6715 7.13575C29.7234 7.20079 29.7983 7.24353 29.8807 7.25522C29.9631 7.2669 30.0469 7.24664 30.1148 7.19859L30.1218 7.19437L30.1654 7.16624C30.2219 7.13264 30.2806 7.10304 30.3412 7.07765L30.5929 7.00312C30.7233 6.97938 30.8563 6.97417 30.9881 6.98765C31.0718 6.99243 31.1542 6.96476 31.2181 6.9104C31.282 6.85603 31.3225 6.77915 31.3312 6.69572C31.3399 6.61228 31.3161 6.52871 31.2648 6.46235C31.2134 6.39599 31.1385 6.35195 31.0556 6.33937Z" fill="#D37034"/>
<path d="M25.1718 3.45938C24.1312 3.7125 23.5828 4.66875 23.5828 5.68125C23.5828 5.68125 23.5968 6.49688 23.7374 7.21407C23.8078 7.59375 23.9062 7.9875 23.9906 8.325C24.1031 8.70469 24.3 9.21094 24.525 9.52032C24.7218 9.80157 25.1718 10.0547 25.5937 10.1109C25.9537 10.1475 26.571 9.88594 26.7159 9.41485C26.5182 9.28381 26.3705 9.08997 26.2965 8.86462C26.2225 8.63927 26.2267 8.39557 26.3083 8.17288C26.3899 7.95019 26.5442 7.7615 26.7462 7.63728C26.9483 7.51306 27.1863 7.46057 27.4218 7.48828V7.50516C27.5522 7.46997 27.6665 7.39119 27.7459 7.28193C27.8252 7.17267 27.8647 7.03953 27.8578 6.90469C27.8156 6.49688 28.125 6.14532 28.5187 6.13125L31.275 5.9625C31.289 5.94844 31.3171 5.94844 31.3312 5.94844C31.9218 5.85 32.3578 5.32969 32.3437 4.725C32.3427 4.5611 32.3082 4.39912 32.2425 4.24899C32.1767 4.09885 32.081 3.96371 31.9612 3.85182C31.8414 3.73994 31.7001 3.65367 31.5458 3.59828C31.3916 3.54289 31.2276 3.51955 31.064 3.52969C30.9646 3.53355 30.8657 3.51391 30.7753 3.47238C30.6849 3.43084 30.6055 3.36857 30.5437 3.29063C30.3606 3.06546 30.1072 2.90837 29.8241 2.84461C29.541 2.78084 29.2447 2.81411 28.9828 2.93907C28.575 3.13594 28.1109 3.16407 27.689 3.02344C27.5203 2.96719 27.3515 2.95313 27.1828 2.95313C26.9578 2.96719 26.7468 3.0375 26.564 3.13594C26.3109 3.30469 26.0156 3.38907 25.7062 3.38907C25.5234 3.38907 25.3546 3.41719 25.1718 3.45938Z" fill="#F1A11E"/>
</svg>
