<svg width="45" height="45" viewBox="0 0 45 45" fill="none" xmlns="http://www.w3.org/2000/svg">
<path d="M38.8997 12.0263C39.1637 12.3496 39.3259 12.744 39.3658 13.1595C39.4056 13.5751 39.3212 13.9931 39.1233 14.3606L31.4648 28.582L39.6211 26.768C40.1675 26.6468 40.7396 26.7476 41.2117 27.0482C41.6837 27.3489 42.017 27.8247 42.1383 28.3711C42.2595 28.9175 42.1587 29.4897 41.858 29.9617C41.5574 30.4338 41.0815 30.7671 40.5351 30.8883L27.8789 33.7008C27.4843 33.7885 27.0728 33.7611 26.6933 33.6216C26.3139 33.4822 25.9825 33.2367 25.7387 32.9143C25.4948 32.5919 25.3487 32.2062 25.3178 31.8031C25.2868 31.4001 25.3724 30.9966 25.5642 30.6408L32.9934 16.8427L23.8092 19.5989C23.5438 19.6785 23.2654 19.7051 22.9897 19.677C22.7141 19.649 22.4467 19.567 22.2028 19.4356C21.7101 19.1703 21.3431 18.7202 21.1823 18.1842C21.0216 17.6483 21.0803 17.0704 21.3456 16.5778C21.6109 16.0852 22.0611 15.7181 22.597 15.5574L36.6595 11.3386C37.0591 11.2189 37.4851 11.2203 37.8839 11.3427C38.2826 11.4651 38.6361 11.703 38.8997 12.0263Z" fill="#00A6ED"/>
<path d="M12.6562 26.7188C12.6562 26.3458 12.8044 25.9881 13.0681 25.7244C13.3319 25.4607 13.6895 25.3125 14.0625 25.3125H23.9062C24.1766 25.3123 24.4413 25.39 24.6686 25.5363C24.8959 25.6826 25.0762 25.8914 25.188 26.1375C25.2997 26.3837 25.3381 26.6569 25.2986 26.9243C25.2591 27.1918 25.1433 27.4421 24.9652 27.6455L17.1605 36.5625H23.9062C24.2792 36.5625 24.6369 36.7107 24.9006 36.9744C25.1643 37.2381 25.3125 37.5958 25.3125 37.9688C25.3125 38.3417 25.1643 38.6994 24.9006 38.9631C24.6369 39.2268 24.2792 39.375 23.9062 39.375H14.0625C13.7924 39.375 13.5281 39.2972 13.301 39.151C13.074 39.0047 12.8938 38.7962 12.7821 38.5503C12.6705 38.3043 12.6319 38.0315 12.6712 37.7643C12.7105 37.4971 12.8259 37.2468 13.0036 37.0434L20.8083 28.125H14.0625C13.6895 28.125 13.3319 27.9768 13.0681 27.7131C12.8044 27.4494 12.6562 27.0917 12.6562 26.7188Z" fill="#83CBFF"/>
<path d="M4.27779 30.5339C4.3851 30.1769 4.62981 29.8771 4.95812 29.7004C5.28643 29.5237 5.67146 29.4846 6.02857 29.5917L13.0598 31.7011C13.3089 31.776 13.5323 31.9184 13.7052 32.1126C13.8781 32.3068 13.9938 32.5452 14.0394 32.8012C14.085 33.0572 14.0588 33.3209 13.9635 33.5628C13.8683 33.8048 13.7078 34.0156 13.5 34.1719L7.57966 38.6128L11.5256 39.4017C11.8915 39.4748 12.2133 39.6903 12.4203 40.0007C12.6274 40.3111 12.7026 40.691 12.6295 41.0569C12.5564 41.4228 12.341 41.7446 12.0306 41.9516C11.7202 42.1587 11.3402 42.2339 10.9744 42.1608L3.9431 40.7546C3.67673 40.7014 3.43145 40.5723 3.23689 40.3828C3.04233 40.1932 2.90682 39.9514 2.84673 39.6865C2.78664 39.4217 2.80455 39.145 2.8983 38.8901C2.99204 38.6352 3.1576 38.4129 3.37498 38.25L9.58357 33.5939L5.22138 32.2847C4.86433 32.1774 4.56451 31.9327 4.38783 31.6044C4.21115 31.2761 4.17067 30.891 4.27779 30.5339Z" fill="#AEDDFF"/>
</svg>
