<svg width="33" height="33" viewBox="0 0 33 33" fill="none" xmlns="http://www.w3.org/2000/svg">
<path d="M17.9809 4.01224C18.4498 2.88337 20.0503 2.88337 20.5191 4.01224L21.1791 5.59624L22.8883 5.73374C24.1065 5.82999 24.6015 7.35212 23.672 8.14824L22.3699 9.26337L22.7686 10.9326C23.0519 12.122 21.758 13.0625 20.7144 12.4245L19.25 11.5307L17.7856 12.4245C16.742 13.0625 15.4481 12.122 15.7314 10.9326L16.1301 9.26337L14.828 8.14824C13.8985 7.35212 14.3921 5.83137 15.6118 5.73237L17.3223 5.59487L17.9809 4.01224ZM19.9086 6.12424L19.25 4.54024L18.59 6.12424C18.4931 6.35754 18.3338 6.55961 18.1295 6.7083C17.9253 6.85699 17.6841 6.94654 17.4323 6.96712L15.7218 7.10462L17.0239 8.21837C17.2163 8.38283 17.3596 8.59719 17.4379 8.83786C17.5163 9.07853 17.5267 9.33616 17.468 9.58237L17.0693 11.2516L18.5336 10.3579C18.7494 10.2262 18.9973 10.1565 19.25 10.1565C19.5028 10.1565 19.7506 10.2262 19.9664 10.3579L21.4308 11.2516L21.032 9.58237C20.9736 9.33636 20.9842 9.07902 21.0625 8.83862C21.1409 8.59822 21.284 8.38408 21.4761 8.21975L22.7783 7.10324L21.0691 6.96574C20.817 6.94577 20.5753 6.85665 20.3706 6.70819C20.1658 6.55973 20.006 6.35767 19.9086 6.12424ZM11.1059 12.2622C11.5748 11.1334 13.1753 11.1334 13.6441 12.2622L15.3945 16.4697L19.9361 16.8327C21.1558 16.9304 21.6494 18.4525 20.7199 19.2486L17.2604 22.2117L18.3191 26.6447C18.601 27.8341 17.3071 28.7746 16.2635 28.1366L12.375 25.762L8.48652 28.1366C7.44289 28.7746 6.14902 27.8341 6.43227 26.6447L7.49102 22.2117L4.02877 19.25C3.10064 18.4539 3.59427 16.9317 4.81389 16.8341L9.35552 16.4711L11.1059 12.2622ZM14.1254 16.9977L12.375 12.7902L10.626 16.9977C10.5287 17.2312 10.3689 17.4332 10.1641 17.5817C9.95936 17.7302 9.71764 17.8193 9.46552 17.8392L4.92389 18.2036L8.38477 21.1681C8.57692 21.3327 8.71993 21.5472 8.79805 21.7878C8.87616 22.0285 8.88636 22.286 8.82752 22.5321L7.76877 26.9637L11.6586 24.5891C11.8744 24.4574 12.1223 24.3878 12.375 24.3878C12.6278 24.3878 12.8756 24.4574 13.0914 24.5891L16.9799 26.9637L15.9239 22.5321C15.8651 22.286 15.8752 22.0285 15.9534 21.7878C16.0315 21.5472 16.1745 21.3327 16.3666 21.1681L19.8261 18.2036L15.2845 17.8392C15.0326 17.819 14.7912 17.7298 14.5867 17.5813C14.3822 17.4329 14.2226 17.231 14.1254 16.9977ZM26.7479 12.0849C26.6925 11.9664 26.6045 11.8661 26.4942 11.7959C26.3839 11.7257 26.2558 11.6884 26.125 11.6884C25.9942 11.6884 25.8662 11.7257 25.7558 11.7959C25.6455 11.8661 25.5575 11.9664 25.5021 12.0849L24.2949 14.6699L21.7099 15.8771C21.5914 15.9325 21.4912 16.0205 21.4209 16.1308C21.3507 16.2411 21.3134 16.3692 21.3134 16.5C21.3134 16.6308 21.3507 16.7589 21.4209 16.8692C21.4912 16.9795 21.5914 17.0675 21.7099 17.1229L24.2949 18.3301L25.5021 20.9151C25.5575 21.0336 25.6455 21.1339 25.7558 21.2041C25.8662 21.2743 25.9942 21.3116 26.125 21.3116C26.2558 21.3116 26.3839 21.2743 26.4942 21.2041C26.6045 21.1339 26.6925 21.0336 26.7479 20.9151L27.9551 18.3301L30.5401 17.1229C30.6586 17.0675 30.7589 16.9795 30.8291 16.8692C30.8993 16.7589 30.9366 16.6308 30.9366 16.5C30.9366 16.3692 30.8993 16.2411 30.8291 16.1308C30.7589 16.0205 30.6586 15.9325 30.5401 15.8771L27.9551 14.6699L26.7479 12.0849ZM25.4361 15.4784L26.125 14.0002L26.8153 15.4784C26.8833 15.6247 27.0006 15.7425 27.1466 15.8111L28.6248 16.5L27.1466 17.1902C27.0008 17.2585 26.8835 17.3758 26.8153 17.5216L26.125 18.9997L25.4348 17.5216C25.3668 17.3752 25.2495 17.2575 25.1034 17.1889L23.6253 16.5L25.1034 15.8097C25.2493 15.7415 25.3665 15.6242 25.4348 15.4784" fill="#008080"/>
</svg>
