<svg width="34" height="34" viewBox="0 0 34 34" fill="none" xmlns="http://www.w3.org/2000/svg">
<path fill-rule="evenodd" clip-rule="evenodd" d="M13.4782 4.25001C13.7838 4.25425 14.0799 4.35726 14.3222 4.54365C14.5646 4.73004 14.7401 4.98982 14.8226 5.28417L20.026 23.7858L22.7573 16.5028C22.8585 16.2328 23.0397 16.0001 23.2766 15.8358C23.5136 15.6715 23.795 15.5834 24.0833 15.5833H28.3333C28.7091 15.5833 29.0694 15.7326 29.3351 15.9983C29.6007 16.2639 29.75 16.6243 29.75 17C29.75 17.3757 29.6007 17.7361 29.3351 18.0017C29.0694 18.2674 28.7091 18.4167 28.3333 18.4167H25.0651L21.1593 28.8306C21.0545 29.1102 20.8641 29.3496 20.6151 29.5145C20.3662 29.6794 20.0715 29.7614 19.7731 29.7488C19.4748 29.7363 19.188 29.6298 18.9538 29.4445C18.7197 29.2592 18.55 29.0047 18.4691 28.7173L13.3875 10.6448L11.2682 17.4222C11.1782 17.7103 10.9986 17.9622 10.7555 18.141C10.5124 18.3199 10.2185 18.4165 9.91667 18.4167H5.66667C5.29094 18.4167 4.93061 18.2674 4.66493 18.0017C4.39926 17.7361 4.25 17.3757 4.25 17C4.25 16.6243 4.39926 16.2639 4.66493 15.9983C4.93061 15.7326 5.29094 15.5833 5.66667 15.5833H8.87542L12.1054 5.24451C12.1966 4.95242 12.3798 4.69769 12.6278 4.51843C12.8757 4.33916 13.1751 4.24499 13.481 4.25001H13.4782Z" fill="white"/>
</svg>
